<mxfile host="app.diagrams.net" modified="2023-04-24T09:44:20.181Z" agent="Mozilla/5.0 (X11; Linux x86_64) AppleWebKit/537.36 (KHTML, like Gecko) Chrome/112.0.0.0 Safari/537.36" etag="UlUhnyZCFljjmdtGiPu_" version="21.2.1" type="device">
  <diagram name="Page-1" id="rmEsi7apwAmEhPZJouNS">
    <mxGraphModel dx="1195" dy="608" grid="1" gridSize="10" guides="1" tooltips="1" connect="1" arrows="1" fold="1" page="1" pageScale="1" pageWidth="827" pageHeight="1169" math="0" shadow="0">
      <root>
        <mxCell id="0" />
        <mxCell id="1" parent="0" />
        <mxCell id="Wdm48LuX8CaEpmGh1nhe-22" value="" style="rounded=0;whiteSpace=wrap;html=1;strokeColor=#82b366;fillColor=#d5e8d4;" parent="1" vertex="1">
          <mxGeometry x="303" y="120" width="517" height="340" as="geometry" />
        </mxCell>
        <mxCell id="Wdm48LuX8CaEpmGh1nhe-21" value="" style="rounded=0;whiteSpace=wrap;html=1;strokeColor=#d79b00;fillColor=#ffe6cc;" parent="1" vertex="1">
          <mxGeometry x="108" y="120" width="190" height="340" as="geometry" />
        </mxCell>
        <mxCell id="UKnU140eOlKVYdsRxSBc-26" style="edgeStyle=orthogonalEdgeStyle;rounded=0;orthogonalLoop=1;jettySize=auto;html=1;" edge="1" parent="1" source="Wdm48LuX8CaEpmGh1nhe-2" target="UKnU140eOlKVYdsRxSBc-24">
          <mxGeometry relative="1" as="geometry" />
        </mxCell>
        <mxCell id="Wdm48LuX8CaEpmGh1nhe-2" value="&lt;p style=&quot;line-height: 90%;&quot;&gt;API Instance 1 (Node.js)&lt;br&gt;&lt;font style=&quot;font-size: 10px;&quot;&gt;&lt;font style=&quot;font-size: 10px;&quot; color=&quot;#a1a1a1&quot;&gt;using tsoa, express, TypeORM, and DTO for data mapping&lt;/font&gt;&lt;/font&gt;&lt;/p&gt;" style="rounded=0;whiteSpace=wrap;html=1;" parent="1" vertex="1">
          <mxGeometry x="450" y="180" width="120" height="90" as="geometry" />
        </mxCell>
        <mxCell id="Wdm48LuX8CaEpmGh1nhe-3" value="&lt;p style=&quot;line-height: 90%;&quot;&gt;Database (MySQL)&lt;br&gt;&lt;font style=&quot;font-size: 10px;&quot; color=&quot;#a1a1a1&quot;&gt;using TypeORM&lt;/font&gt;&lt;/p&gt;" style="shape=cylinder3;whiteSpace=wrap;html=1;boundedLbl=1;backgroundOutline=1;size=15;" parent="1" vertex="1">
          <mxGeometry x="710" y="202.5" width="100" height="170" as="geometry" />
        </mxCell>
        <mxCell id="Wdm48LuX8CaEpmGh1nhe-32" style="edgeStyle=orthogonalEdgeStyle;rounded=0;orthogonalLoop=1;jettySize=auto;html=1;entryX=0;entryY=0.5;entryDx=0;entryDy=0;" parent="1" target="Wdm48LuX8CaEpmGh1nhe-9" edge="1">
          <mxGeometry relative="1" as="geometry">
            <Array as="points">
              <mxPoint x="98" y="290" />
              <mxPoint x="98" y="210" />
            </Array>
            <mxPoint x="53" y="290.0344827586208" as="sourcePoint" />
          </mxGeometry>
        </mxCell>
        <mxCell id="Wdm48LuX8CaEpmGh1nhe-35" style="edgeStyle=orthogonalEdgeStyle;rounded=0;orthogonalLoop=1;jettySize=auto;html=1;entryX=0;entryY=0.5;entryDx=0;entryDy=0;" parent="1" target="Wdm48LuX8CaEpmGh1nhe-26" edge="1">
          <mxGeometry relative="1" as="geometry">
            <mxPoint x="53" y="290" as="sourcePoint" />
          </mxGeometry>
        </mxCell>
        <mxCell id="Wdm48LuX8CaEpmGh1nhe-36" style="edgeStyle=orthogonalEdgeStyle;rounded=0;orthogonalLoop=1;jettySize=auto;html=1;entryX=0;entryY=0.5;entryDx=0;entryDy=0;" parent="1" target="Wdm48LuX8CaEpmGh1nhe-27" edge="1">
          <mxGeometry relative="1" as="geometry">
            <mxPoint x="53" y="290.0344827586208" as="sourcePoint" />
          </mxGeometry>
        </mxCell>
        <mxCell id="Wdm48LuX8CaEpmGh1nhe-4" value="Client" style="shape=umlActor;verticalLabelPosition=bottom;verticalAlign=top;html=1;outlineConnect=0;" parent="1" vertex="1">
          <mxGeometry x="20" y="260" width="30" height="60" as="geometry" />
        </mxCell>
        <mxCell id="UKnU140eOlKVYdsRxSBc-7" style="edgeStyle=orthogonalEdgeStyle;rounded=0;orthogonalLoop=1;jettySize=auto;html=1;entryX=0;entryY=0.5;entryDx=0;entryDy=0;" edge="1" parent="1" source="Wdm48LuX8CaEpmGh1nhe-9" target="UKnU140eOlKVYdsRxSBc-3">
          <mxGeometry relative="1" as="geometry" />
        </mxCell>
        <mxCell id="Wdm48LuX8CaEpmGh1nhe-9" value="Web App (Angular)" style="rounded=0;whiteSpace=wrap;html=1;" parent="1" vertex="1">
          <mxGeometry x="143" y="175" width="120" height="70" as="geometry" />
        </mxCell>
        <mxCell id="Wdm48LuX8CaEpmGh1nhe-24" value="Front-end" style="text;html=1;strokeColor=none;fillColor=none;align=center;verticalAlign=middle;whiteSpace=wrap;rounded=0;" parent="1" vertex="1">
          <mxGeometry x="108" y="430" width="75" height="30" as="geometry" />
        </mxCell>
        <mxCell id="Wdm48LuX8CaEpmGh1nhe-25" value="Back-end" style="text;html=1;strokeColor=none;fillColor=none;align=center;verticalAlign=middle;whiteSpace=wrap;rounded=0;" parent="1" vertex="1">
          <mxGeometry x="303" y="430" width="70" height="30" as="geometry" />
        </mxCell>
        <mxCell id="UKnU140eOlKVYdsRxSBc-6" style="edgeStyle=orthogonalEdgeStyle;rounded=0;orthogonalLoop=1;jettySize=auto;html=1;" edge="1" parent="1" source="Wdm48LuX8CaEpmGh1nhe-26" target="UKnU140eOlKVYdsRxSBc-3">
          <mxGeometry relative="1" as="geometry" />
        </mxCell>
        <mxCell id="Wdm48LuX8CaEpmGh1nhe-26" value="Desktop App (Electron)" style="rounded=0;whiteSpace=wrap;html=1;" parent="1" vertex="1">
          <mxGeometry x="143" y="255" width="120" height="70" as="geometry" />
        </mxCell>
        <mxCell id="UKnU140eOlKVYdsRxSBc-8" style="edgeStyle=orthogonalEdgeStyle;rounded=0;orthogonalLoop=1;jettySize=auto;html=1;entryX=0;entryY=0.5;entryDx=0;entryDy=0;" edge="1" parent="1" source="Wdm48LuX8CaEpmGh1nhe-27" target="UKnU140eOlKVYdsRxSBc-3">
          <mxGeometry relative="1" as="geometry" />
        </mxCell>
        <mxCell id="Wdm48LuX8CaEpmGh1nhe-27" value="Mobile App (Flutter)" style="rounded=0;whiteSpace=wrap;html=1;" parent="1" vertex="1">
          <mxGeometry x="143" y="335" width="120" height="70" as="geometry" />
        </mxCell>
        <mxCell id="Wdm48LuX8CaEpmGh1nhe-33" value="&lt;h1 style=&quot;&quot;&gt;MSPR Software Architecture Diagram&lt;br&gt;&lt;div style=&quot;text-align: center;&quot;&gt;&lt;span style=&quot;font-size: 20px; font-weight: normal; background-color: initial;&quot;&gt;Client-server architecture type&lt;/span&gt;&lt;/div&gt;&lt;/h1&gt;" style="text;html=1;strokeColor=none;fillColor=none;spacing=5;spacingTop=-20;whiteSpace=wrap;overflow=hidden;rounded=0;" parent="1" vertex="1">
          <mxGeometry x="232" y="30" width="455" height="70" as="geometry" />
        </mxCell>
        <mxCell id="UKnU140eOlKVYdsRxSBc-9" style="edgeStyle=orthogonalEdgeStyle;rounded=0;orthogonalLoop=1;jettySize=auto;html=1;entryX=0;entryY=0.5;entryDx=0;entryDy=0;" edge="1" parent="1" source="UKnU140eOlKVYdsRxSBc-3" target="Wdm48LuX8CaEpmGh1nhe-2">
          <mxGeometry relative="1" as="geometry" />
        </mxCell>
        <mxCell id="UKnU140eOlKVYdsRxSBc-10" style="edgeStyle=orthogonalEdgeStyle;rounded=0;orthogonalLoop=1;jettySize=auto;html=1;entryX=0;entryY=0.563;entryDx=0;entryDy=0;entryPerimeter=0;" edge="1" parent="1" source="UKnU140eOlKVYdsRxSBc-3" target="UKnU140eOlKVYdsRxSBc-5">
          <mxGeometry relative="1" as="geometry" />
        </mxCell>
        <mxCell id="UKnU140eOlKVYdsRxSBc-3" value="Load Balancer&lt;br&gt;(HAProxy)" style="ellipse;whiteSpace=wrap;html=1;aspect=fixed;" vertex="1" parent="1">
          <mxGeometry x="320.5" y="243" width="94" height="94" as="geometry" />
        </mxCell>
        <mxCell id="UKnU140eOlKVYdsRxSBc-25" style="edgeStyle=orthogonalEdgeStyle;rounded=0;orthogonalLoop=1;jettySize=auto;html=1;" edge="1" parent="1" source="UKnU140eOlKVYdsRxSBc-5" target="UKnU140eOlKVYdsRxSBc-24">
          <mxGeometry relative="1" as="geometry" />
        </mxCell>
        <mxCell id="UKnU140eOlKVYdsRxSBc-5" value="&lt;p style=&quot;line-height: 90%;&quot;&gt;API Instance 2 (Node.js)&lt;br&gt;&lt;font style=&quot;font-size: 10px;&quot;&gt;&lt;font style=&quot;font-size: 10px;&quot; color=&quot;#a1a1a1&quot;&gt;using tsoa, express, TypeORM, and DTO for data mapping&lt;/font&gt;&amp;nbsp;&lt;/font&gt;&lt;/p&gt;" style="rounded=0;whiteSpace=wrap;html=1;" vertex="1" parent="1">
          <mxGeometry x="450" y="280" width="120" height="90" as="geometry" />
        </mxCell>
        <mxCell id="UKnU140eOlKVYdsRxSBc-14" value="" style="shape=image;html=1;verticalAlign=top;verticalLabelPosition=bottom;labelBackgroundColor=#ffffff;imageAspect=0;aspect=fixed;image=https://cdn0.iconfinder.com/data/icons/phosphor-fill-vol-1/256/angular-logo-fill-128.png" vertex="1" parent="1">
          <mxGeometry x="238" y="220" width="25" height="25" as="geometry" />
        </mxCell>
        <mxCell id="UKnU140eOlKVYdsRxSBc-15" value="" style="shape=image;html=1;verticalAlign=top;verticalLabelPosition=bottom;labelBackgroundColor=#ffffff;imageAspect=0;aspect=fixed;image=https://cdn1.iconfinder.com/data/icons/ionicons-fill-vol-2/512/logo-electron-128.png" vertex="1" parent="1">
          <mxGeometry x="238" y="300" width="25" height="25" as="geometry" />
        </mxCell>
        <mxCell id="UKnU140eOlKVYdsRxSBc-16" value="" style="shape=image;html=1;verticalAlign=top;verticalLabelPosition=bottom;labelBackgroundColor=#ffffff;imageAspect=0;aspect=fixed;image=https://cdn2.iconfinder.com/data/icons/boxicons-logos/24/bxl-flutter-128.png" vertex="1" parent="1">
          <mxGeometry x="238" y="380" width="25" height="25" as="geometry" />
        </mxCell>
        <mxCell id="UKnU140eOlKVYdsRxSBc-22" value="" style="shape=image;verticalLabelPosition=bottom;labelBackgroundColor=default;verticalAlign=top;aspect=fixed;imageAspect=0;image=data:image/png,iVBORw0KGgoAAAANSUhEUgAAAGAAAABgCAYAAADimHc4AAAACXBIWXMAAAsTAAALEwEAmpwYAAAG9UlEQVR4nO2deYhVVRjAf88ss8lp0zRbJ9vEIrNNS21hKicKW8hWrMikaCVSKbSi1TbUbA8qspQyEDTbLInEMDPTGlts17LJvVzSrHlx4Hv0GO6597vv3ree84MD88fcs333nuXbHng8Ho/H4/F4PB6PxxPBbsCtwAJgPbAOmA/cDNRHPewpnHbAUOB3IGspq4GbgO38RKfLKcDikIlvWxYCA70QkrMv8FKMiW9bZgANXhDxqQPuAv5KMPm5shkYC3TygogmA1wOrFBMrNl8bwPGAH8o/n8ZcLG04QngGGCuYiL/lWWpa96zewATgH8Uz5sTUz8vgf/pDjwjExs1eR8AvUMmrw/woaKeVhFiN5cFsYMcGf9UTNhyOYJql4+zgR8V9W6UvWZHHMNM0A+KCdokE9SxgDbMM6OADYp2vgUuwAF6Am8rl4jXgP1TaHNvWW5aFe2+DxxBDbJ7jE1yAXBiEfpwHPCRov1tsid1oQbYXtb5dYqBrwCGi8qhWGRkL/lN0Z+10vf2VCmNQLNioFvl66iv0Ive10ATVcQhogLIKsoM4MAy9vUg2Wu0fe1BBbOrXPm3KAbzJTCIyuFUpbLv7zJ8rWo1cYtiAGsqWF3cXvaglTH2q7KP4yRgUYyTRWeqw+AzVvamqHF9CvQv19syVnm2fg84nOrjUGCmYnytsiyZE1/JeELRsaU1crtslD0rarzjSrnshHXE2GlvEV1PrdABGBmhtzJfwoBSdMZ2bDO33GeBPaldugHPh2hup5SiEz8HNLwoQk1ci7aL5oB5MBrYohOkz6mFtT4ul1lWgaIT9OkNTljnJNG95Io5iw+J8XwXuYs8KqeupaLv2ShlFfC9KPomiSmzMeHJ5ULLXFSlAFoC6pyoeO50UW9vU5xSbBdDs6YfXECfnRZAd+DNAifdpmIYL6cdLc4KoCfwU4qTn19mA7so++ykAOrEfJgtYnlHaXt2UgCPRVyE5suNdLiczM6QzfZ88Te6A5gmG32YEK5Q9Nk5AdSF3ESNK8phMdrbSbSymy31LVV8Bc4J4DxL280J3Er6h2g9o7SczglghKVtExeQhPss9d4Z8ZxzAnjE0vZFCdvuarndT414zjkBjLa0bd7gpMwJqHdexDPOCeDKkEvUyBjn9yAOAK6W01OuRBmRnBPAPhEOvFvlInWvHEGPLNClUYtzAkBpImx7NzDq81lixbtB9EfmjU+KkwLYTwLxsimUVSLQ0fK1xMVJAeSMIUFGoaTlO/lCtMuWswLIRcSMF11/2oIwsQh9icZpAeToLCeW6cpAD23ZIjqkMLwA2pARw8oQsXg9DbwFLFEGabQtv4qTlg0vgJiYyTweGCZf1xcKx7LrQ+rzAkiBBrEjbwuJmLHhlACagK/EsJ4rxrieFkMs4zKWNxtOCeABS7vGNpwGGUsUjwngsOGUAEZY2r2E9FhruazZcEoAgyztzkkp9UAPS/2fhTzjlAB2DrFc3Z6w7UyIv+tTIc85JQDDc5a2c06xxp8/Lj0j4tnCcko4J4CGECN6riyRt3aEWMqa5EbbmOcdcaPUvTChe4pzAkAmUJPUI2lZLRH2YTgpAMM1CXxBNcVoWnsRTdkEEDT4OJ7MaSjj+iqDA+MUo5aYDOyl7PPQgDrM3BSdoDQw3yRMktcSUwC58NhzgDcSfhHmAvai5BrSMlCct9rWZTLAFJ1XQgZTaIaTlgIEkI/JB3eW+PJMFU+5xaJKWC832pWiwvhY1BijxDwZJ5bNjO3VkPGnqR6x0i9Ci2hOKneLK6GGjCVnw8NUDnUyprBTWKvSkJMKDyotS5cqbqoDLM8bnX65yYi6Y7livCZuumS0E09jzZHQJOI71lJPvVz3s0XY2EuZRHBMubIx9rF4lQV18l1xET9KslINs2xkaWs60w5FzS9m7EdTRTngtGV2GZNLaXKQ/hIziWBJ6CjL0qaEk9+qMIinzWBl5E0uiaCJL6jofM+TlYk8suXMuSA33lnKl2KKjK1qOEEUWlpBtMpJopg54/KTCE5UXuAWlCslTZpv2eOybgYNcAPweok2M5Nm5zqJD46aeHM5vKpEL0RJyEg+uSbxXj5NfDJLlZWwUVxRoibeGH4eqrS0ZOWiPiVz4zTlMji9wKj5mqOX6JWCMqUXKzXlmThOB1maZgZs3OvEkqVZrtpJnK/mNwjWxqi35pmrmLDPgZMjFIXzFfWYoLwnxcvak+fp/ILy2DpFQpZymL9fdj1Bd1r0lbN31ESa2IB7gPuVcQLGFnBuuQdXS78ZllUWZ3+kIS2X8gnKtPe23yAwcWWehPRWqr1z5RNRhXiKoPZeFhHVUuzfIHCeThLNOE/uB2vkCHttDDu0x+PxeDwej8fj8XhwlP8ASqhoSgkakkEAAAAASUVORK5CYII=;" vertex="1" parent="1">
          <mxGeometry x="544" y="344" width="26" height="26" as="geometry" />
        </mxCell>
        <mxCell id="UKnU140eOlKVYdsRxSBc-23" value="" style="shape=image;verticalLabelPosition=bottom;labelBackgroundColor=default;verticalAlign=top;aspect=fixed;imageAspect=0;image=data:image/png,iVBORw0KGgoAAAANSUhEUgAAAGAAAABgCAYAAADimHc4AAAACXBIWXMAAAsTAAALEwEAmpwYAAAG9UlEQVR4nO2deYhVVRjAf88ss8lp0zRbJ9vEIrNNS21hKicKW8hWrMikaCVSKbSi1TbUbA8qspQyEDTbLInEMDPTGlts17LJvVzSrHlx4Hv0GO6597vv3ree84MD88fcs333nuXbHng8Ho/H4/F4PB6PxxPBbsCtwAJgPbAOmA/cDNRHPewpnHbAUOB3IGspq4GbgO38RKfLKcDikIlvWxYCA70QkrMv8FKMiW9bZgANXhDxqQPuAv5KMPm5shkYC3TygogmA1wOrFBMrNl8bwPGAH8o/n8ZcLG04QngGGCuYiL/lWWpa96zewATgH8Uz5sTUz8vgf/pDjwjExs1eR8AvUMmrw/woaKeVhFiN5cFsYMcGf9UTNhyOYJql4+zgR8V9W6UvWZHHMNM0A+KCdokE9SxgDbMM6OADYp2vgUuwAF6Am8rl4jXgP1TaHNvWW5aFe2+DxxBDbJ7jE1yAXBiEfpwHPCRov1tsid1oQbYXtb5dYqBrwCGi8qhWGRkL/lN0Z+10vf2VCmNQLNioFvl66iv0Ive10ATVcQhogLIKsoM4MAy9vUg2Wu0fe1BBbOrXPm3KAbzJTCIyuFUpbLv7zJ8rWo1cYtiAGsqWF3cXvaglTH2q7KP4yRgUYyTRWeqw+AzVvamqHF9CvQv19syVnm2fg84nOrjUGCmYnytsiyZE1/JeELRsaU1crtslD0rarzjSrnshHXE2GlvEV1PrdABGBmhtzJfwoBSdMZ2bDO33GeBPaldugHPh2hup5SiEz8HNLwoQk1ci7aL5oB5MBrYohOkz6mFtT4ul1lWgaIT9OkNTljnJNG95Io5iw+J8XwXuYs8KqeupaLv2ShlFfC9KPomiSmzMeHJ5ULLXFSlAFoC6pyoeO50UW9vU5xSbBdDs6YfXECfnRZAd+DNAifdpmIYL6cdLc4KoCfwU4qTn19mA7so++ykAOrEfJgtYnlHaXt2UgCPRVyE5suNdLiczM6QzfZ88Te6A5gmG32YEK5Q9Nk5AdSF3ESNK8phMdrbSbSymy31LVV8Bc4J4DxL280J3Er6h2g9o7SczglghKVtExeQhPss9d4Z8ZxzAnjE0vZFCdvuarndT414zjkBjLa0bd7gpMwJqHdexDPOCeDKkEvUyBjn9yAOAK6W01OuRBmRnBPAPhEOvFvlInWvHEGPLNClUYtzAkBpImx7NzDq81lixbtB9EfmjU+KkwLYTwLxsimUVSLQ0fK1xMVJAeSMIUFGoaTlO/lCtMuWswLIRcSMF11/2oIwsQh9icZpAeToLCeW6cpAD23ZIjqkMLwA2pARw8oQsXg9DbwFLFEGabQtv4qTlg0vgJiYyTweGCZf1xcKx7LrQ+rzAkiBBrEjbwuJmLHhlACagK/EsJ4rxrieFkMs4zKWNxtOCeABS7vGNpwGGUsUjwngsOGUAEZY2r2E9FhruazZcEoAgyztzkkp9UAPS/2fhTzjlAB2DrFc3Z6w7UyIv+tTIc85JQDDc5a2c06xxp8/Lj0j4tnCcko4J4CGECN6riyRt3aEWMqa5EbbmOcdcaPUvTChe4pzAkAmUJPUI2lZLRH2YTgpAMM1CXxBNcVoWnsRTdkEEDT4OJ7MaSjj+iqDA+MUo5aYDOyl7PPQgDrM3BSdoDQw3yRMktcSUwC58NhzgDcSfhHmAvai5BrSMlCct9rWZTLAFJ1XQgZTaIaTlgIEkI/JB3eW+PJMFU+5xaJKWC832pWiwvhY1BijxDwZJ5bNjO3VkPGnqR6x0i9Ci2hOKneLK6GGjCVnw8NUDnUyprBTWKvSkJMKDyotS5cqbqoDLM8bnX65yYi6Y7livCZuumS0E09jzZHQJOI71lJPvVz3s0XY2EuZRHBMubIx9rF4lQV18l1xET9KslINs2xkaWs60w5FzS9m7EdTRTngtGV2GZNLaXKQ/hIziWBJ6CjL0qaEk9+qMIinzWBl5E0uiaCJL6jofM+TlYk8suXMuSA33lnKl2KKjK1qOEEUWlpBtMpJopg54/KTCE5UXuAWlCslTZpv2eOybgYNcAPweok2M5Nm5zqJD46aeHM5vKpEL0RJyEg+uSbxXj5NfDJLlZWwUVxRoibeGH4eqrS0ZOWiPiVz4zTlMji9wKj5mqOX6JWCMqUXKzXlmThOB1maZgZs3OvEkqVZrtpJnK/mNwjWxqi35pmrmLDPgZMjFIXzFfWYoLwnxcvak+fp/ILy2DpFQpZymL9fdj1Bd1r0lbN31ESa2IB7gPuVcQLGFnBuuQdXS78ZllUWZ3+kIS2X8gnKtPe23yAwcWWehPRWqr1z5RNRhXiKoPZeFhHVUuzfIHCeThLNOE/uB2vkCHttDDu0x+PxeDwej8fj8XhwlP8ASqhoSgkakkEAAAAASUVORK5CYII=;" vertex="1" parent="1">
          <mxGeometry x="544" y="244" width="26" height="26" as="geometry" />
        </mxCell>
        <mxCell id="UKnU140eOlKVYdsRxSBc-27" value="" style="edgeStyle=orthogonalEdgeStyle;rounded=0;orthogonalLoop=1;jettySize=auto;html=1;" edge="1" parent="1" source="UKnU140eOlKVYdsRxSBc-24" target="Wdm48LuX8CaEpmGh1nhe-3">
          <mxGeometry relative="1" as="geometry" />
        </mxCell>
        <mxCell id="UKnU140eOlKVYdsRxSBc-24" value="Cache Server (Redis)" style="rounded=1;whiteSpace=wrap;html=1;" vertex="1" parent="1">
          <mxGeometry x="610" y="255" width="80" height="65" as="geometry" />
        </mxCell>
        <mxCell id="UKnU140eOlKVYdsRxSBc-28" value="" style="shape=image;verticalLabelPosition=bottom;labelBackgroundColor=default;verticalAlign=top;aspect=fixed;imageAspect=0;image=data:image/png,iVBORw0KGgoAAAANSUhEUgAAAgAAAAIACAYAAAD0eNT6AAAABHNCSVQICAgIfAhkiAAAAAlwSFlzAAAN1wAADdcBQiibeAAAABl0RVh0U29mdHdhcmUAd3d3Lmlua3NjYXBlLm9yZ5vuPBoAACAASURBVHic7N1nmGxVmTbg+wQOOYMEiQIqqMhIMGLCnOOYc87OjGkcHdusYxZzzjlgwiwmTBgAFQRBkKBkkAwn8P146Y/Doft0dXdVr6pdz31dzxwGgV69167aa++91ruIiIiIiIiIiIiIiIiIiIiIiIiIiIiIiIiIiIiIiIiIiIiIiIiIiIiIiIiIiIiIiIiIiIiIiIiIiIiIiIiIiIiIiIiIiIiIiIiIiIiIiIiIiIiIiIiIiIiIiIiIiIiIiIiIiIiIiIiIiIiIiIiIiIiIiIiIiIiIiIiIiIiIiIiIiIiIiIiIiIiIiIiIiIiIiIiIiIjOWtS6ARHRzAbYGzti29WyzWp/vRkux2W49Oqs/tcn4xj8+eqct5C/QETMXQYAEeNhmbrY74f9r85eWNLnn3OmawYDR+MwnNjnnxERfZABQEQ3bYK7XJ391cV/WaO2nIwfXJ0f4exG7YiI1WQAENEdN8G9rs5tsU7b5kzpKhzlmgHBYbiyaYsiIiJGzIa4H96Hv6uL66jlfHwEd8fS/h6eiIiI7tgUj8O3cYX2F/B+5mw1mLkjFvfpeEVERIysDfEIHKJm5Le+UC9E/oF34NbyqjIiIsbIengQvoBLtL8gt8yJ+B9cf15HNCIiYkitg/vgk7hQ+wvvsGUFvokHyHyBiIjogH3U4+6ztb/IjkrOwBtxwzkc74iIiGa2wvPwB+0vpqOen+CxWH9WPRAREbFAlqpH/F9Wa99bXzi7lgvwHuzba4dEREQM0k3wJvXYuvVFclzyBzxb7WUQERGxYDbDM/Ab7S+G45zL8CncSZYTRkTEgCxWFe0+py48rS9+ybVzAv4b203XgREREbOxB16HU7W/yCUzZwW+rsooZzlhRETMysZ4En6u/QUtmXv+gddjdxEREdNYpN4lf0Kq83UxP8ajZTlhRERcbVdM4CTtL1LJ4HM+3o1/ExERY2cDVVzmMKzS/qKUtMnv8UxZThgR0Xm3w4elFn9y7Vyq9mi4g4iI6Iwd1G5zx2t/oUmGP8fjJdhWRESMnPXwcHwXK7W/qCSjl+U4BPfFEhERMdQOwHvVRK/WF5CkOzkdr8VuIiJiaGyLF+LP2l8okm5nFX6ER6qnTBERscCWqkezX1OPaltfGJLxy3k4GPuIGELZHCO6Zg88EY+Tmu8xPH6HD+Gz+FfjtkREdMbkmv2faH/XN998DW/FOUPQlqT/uQQfx4EiImLO9sf71B1V6y/2fuVStSxxGR6G70shoq7mOLwI24iIiBltgefiKO2/wAeVD6/xO++KV+O0IWhb0v8sx1dxb1lOGBFxLYtxV3wOl2v/hT3orMBNpjgOS9RF4qvGY2Ljr9XqjfcNQVsWKqfhNbiBiIgxthNegZO1/2Je6Hx9hmOzrapG99chaGu/skptr/x81ffU4O+kIWhbi2PxAzwC64qIGAPL8FCp0HeV3iaKLcId8SlcNgRtnm1WqA2XnmXqVRv3HYI2ts65eCf2nuL4RESMvJvibTL7ffX8cpbHcHM8G0cOQdvXluVqgPdUbD3D7/SdIWjvMOU3eBo2meG4RUQMtU3UReDX2n+xDmseNMdju5/hWiFxBb6Jx6uJnL3YXVZATJdL8FG1e2VExMg4EB9TX2Ktv0iHPX9RVQ3nakM8AYc3aPulasLio8ztjvWtDdo8ijkWL8D15nCMIyIGblu15vk47b8wRy1Pm8PxnsqeeAvOHmBbL8YX8O9q8DFXG8iGTbPNlfgy7qkmT0ZENLNETeI6xHgsWxtU/ml+F9M19Xui5b/UJMQHYv0+tfHJfWjXOOdUvAq7zPK4R0TMyx54Pf6h/RdhV/KyWfVA73ZRF4pTZ9me89Q76PsYzDK1P8yyPcnUWaWqST5MlhNGxICsj8foRj3+YcyFZp4xPx+LcS98xfRPa87CB3A3rDPAttxmmp+fzC/n4O1qxU1ExLzth/fiAu2/4Lqed/bYJ/O1jWvma/wD78adLFyZ2k9rf6y7nl/jKdi4xz6JiMB41OMfxlxp4UvELvSW4duoJYOtj/W45GJ8RD11iYiY0iLjVY9/WPPZmTpqxP2P9sd4XHMM/stgXzVFxAjZCf9rPOvxD2NWYd+1ddgIW2L2kxGT/udKfBH3kOWEEWNncpnYd6Qe/zDmB9N33Uh7kPbHNrl2TsEEdp6+2yKiCybr8Q+yUEzSn9x9mj4cZT/U/rgmU2elqhvxUHWDEBEdsLHU4x/F/MHCT9AbpD21P6ZJbzlblWm+yZQ9GRFD73aqkEvq8Y9uHn2dXh1dB2t/PJPZ55d4Eja6bpdGxDCZXN/9F+2/OJK55zI1SeuOumEjw7NrYTK3XIQP4lYiYmgsUeVaU49/tLMKP1Z3W5vqlmdof3yT/uVPeD62FBFN7IrX4DTtvxCS+X2ZvkQtx+yqP2l/nJP+5wp8XtUP6dJ8lYihtC4erpaJrdL+CyCZW/6htu39N913a+2PdzL4nKzqiewoIvrqpmqTj3O0/6Anc8tF+IS6W1qomvvD4gC8R+0w2LofksFmJQ7Fgw12Q6mITttIvQ/+pfYf6mRuWaG+DB+JDcS6ap35t9Sxad0/yWBzJt6EG4uIntxSzba9SPsPcDK3HIHnqVUZMbXt8EKZHzAu+TkeLwPhiOvYQl0w/qj9BzWZW05SkzJztzN7++FdOFf7fkwGm3/h/dhfxBhbhIPU7m/ZfW80cx7ep4ouZRb0/C1T746/IUtaxyFHqW3HtxAxJrZXW6KeqP0HMJl9LseX8UCpmT5I26ita4/Wvs+TwX+mPoM7y0A6Omgp7oevy+SnUcwq/FTtqbCZWGi3wDtlFcw45ER1g3R9ESNuN7xOrftu/cFKZp9j8FLZKnVYLFNPXr4mrwi6nhX4Jh6gbqAiRsJ6atnXj6RYzyjmDLVl8r5rdmwMleupcrRHan/OJIP/TL4RNxQxpPZWjylT7GT0cik+hXsYvyI9XbCPKpR1lvbnUjLY/ASPwfpiRplQMVgbq9K8T5FlLaPuYlW4pJdc1KiNsXbr4F5qvfm9pRJdl/1LTRz8EH7fuC1DKwOAwbg1noyHYcPGbYmFd5neBwsXNGrjuNtKvYp7vPHYc2GcHakGAp+Wz9u1ZADQP1upR09Pxl6N2xKj4wr1aLqXwcLk66Pon3VxTzWZM0/puu1yfAkfVq8Kxv6zlAHA/CzCXdRF/wGy7jsGaznO1ttg4Rw1yXRcLVYTAbdXS8bW/HPyr7Nn/Xg6QQ0EPo5/Nm5LMxkAzM0OeAKeiF3aNiViSivVIGDNgcFxai+JUbaJ6S/ok39uJ8vDYmaTG3J96Oo/V7ZtzsLKAKB3S3EfNaHv7jIbPEbXPfGd1o2Ywjrq4j3TXftGrRoYnfZPfEw9GTixbVMWRgYAM9tDbbv7eNm9LbrhBNxUzT9YCIvUHJnp7tYn/9xavpOivavwYzUQ+LKaOxBjZH08Wp0Erde1Jskg8jKD9UAcjpPVQKP175skc8l5OFjVkuicjLavbR81oe9RUtM9uu0ytVrl5AH9938vy+uiW36n5gp8VtUZGHkZANSEokeqC3/Ku8Y4+TruP4D/7q3xiwH8d6M35+KT+INamnyQfNf306VqOeGH8LPGbYk5uq2a8HGJ9o+ZkqRV7q3/PjkEv9e4ZZXaX+QRqrbB6m6A18qmY4PIcXiRzA8bCVurPcSP1f7ESZJhyIlqg6p+2VpNmmr9e41LzlQb4ezRQ98sVfVKvqWWu7Vue5eyHF9RpaazQmyILFbL9r6IK7U/UZJk2PIK/fOSIfh9up6Vahnng819P4MdMYFThuD36VpOw6uxa6+dEf23o/pi+7v2J0SSDHMuU4+J52uxmlTY+vfpaiYvLLv01h09WazuWr+q7mJb/45dyir8QG0It+ZrmRiAddSo+NvyiCtJZpNvmL/7DsHv0bWsUJM172vwj5a3U3sinNjod+1yzsU7cLOeeyN6diO8Sb0Pa93RSTKqua/5+c4Q/A5dycl4uSqStNAm9zj5vNRwGER+rSrKbtxrhwzKKC8NWR8PVcv3Dmzcli66SpXG/PvVOQXnqyUwveZy9ehrg1lkU+yEna/O9jKpZqGchJuoVwKztTuON9rfKa0tV09iPoDvG47NnLbG49T37I0at6VrLsEX1HLCJstmR/HDegt1Mj5SXSxiblaoi/rfp8mpatJka0vV5ks7T5NdzH0iVFzXq/G/c/j33oL/7HNbxsUJ6iLwMfUUc1jdHk9Vr1n7uXIkamXah/EJteNnrGZTPFNVF2v9+GZUcwI+g+erGgjrz6oHhte6OADPUlt7HqvunFof71HN5epufjbWVyVTW7d9lHK5qih3Z6N3I7Y5nos/an8cu5Yr1Yq1e6gJmmPt9mpEdKn2HTNK+aeaOPQytQRyi9ke+BG3ifpifbHazCNLnWaXQ2d5vJ84BG0elRyD/8CWszzGw+rW+IgUVBtETlFLNXfutTO6YBu8UFVYat0Bo5Ir1MqHp6jlj3Fd2+KxarlTBpQz5wGzOLa/G4L2DnMuVU+nbjeLYzpqNsHT5VwYRFbiu+rVy9JeO2SULFZ7lH9ZivX0mkuuPl6PkrkQs7Wh+jB9Wm3q0bovhzEnq0mZM7nlELR1WHOkejU1bhuL7Yv34ULt+6Br+QdepeZFjbyd8Up5RNtrzld11h+oO+/wW1umBp8fxFna9/Ew5TU9HL9PDEE7hykXqXPpgB6OXddtqF4P/Ur7fulaVuAQ9Yp3pOaQLFPL974rxXp6za/xIJntPmhL1OSbH2nf58OQK6y9xvxWUvd/MkeoV3AbreV4jbOb4Z0yWXQQOUG9Nt+q595oYE+1VOhs7Q/YqOR7ajJbLLxbqvkC476i4LtrOUYvHoL2tcwFeDf2WcsximtbT21R/FPt+69ruRxvN0STvjfE43G49gdnVLJSFYfYd/aHOwZgT3zUeM9NefAUx2WxKhzUum0tcrj6XutljkRM78Z4s9wU9jvnqZocy3rviv7aT00CyQSr3rNCvTvsZVvPWHg7qtH1OD7yPkUN5ld3nyFo10LmXLwNe4l+W4aHqY1zxv2JWz9zAh4yi36Yl/VUhb4jB/gLdTUn4TazP+TRwM3wJ+3PmYXO69c4Dt8egjYtRA5TVUezm9vC2A2vU7VMWvd9V/Jz3Hw2nTAb26plCXmMM7d8RpbxjZr18C7tz52FzBWuqQW/m27fqZ2JN8rTuJaWqtVOh8pk8X7kIn2eT3ZzVbs6u0XNLReqyTAxuu5jvJYOfv/q3/vNQ9CWfmeVmvD4EFltM2x2UsvFT9X+PBnlXI77z/LYX8si9aX3wyH4ZUY5v8INZnnsYzhtqy4crc+phcrj1Pvw1u3oV05XGyDtIobdEtxbrX9frv25M4pZbo43nnfCn4fgFxj1fEfD2ZkxEIvxKe3PrYVIF754V6htd+8nW02Pqu3xP/ib9ufTqGUV7tXrgd5Ovadu3egu5GeydKirlqo7k9bnWDJ9TlZbHXeijGqgnkrfVe2gN85LdWebo8xQQXAJnidL+fqVk2WyX9etK6tghi3L1Z4Z2V61+64nG8nNJvtPdyBvJV9k/cwqHDTdwY5O2UfuRIYhJ+AlanfRGD93VJt9jWPdjl7zhKkO3L1kZn+/8+GpDnR01mu1P+fGMVfgs2q500htkBIDs4V6kj2OtTtmyivWPFh3xWVD0LCuZe81D3R02vZqolnr825ccqwqfTrUm6FEc7dRZb0v1f6cHYZMLF3t4NwRX1NFTqJ/foejWzciFtQ/1GqPe7duSIddpiZ+fVBVOotYm8XY7OqkzsPVJgcA++Kbssf8IHx/5n8kOuj7MgAYhKPVRf9Taje+iLXZCU+8Ojs2bsvQmRwAvNZ1N/uI/jixdQOiifR7/1yJT+ID+E3jtsTwW4r74im4u6z+mNZS3FAdpBiM01o3IJpIv/fPMrW6Yh/1vv+its2JIbWb2pDu8apCZ8xgsfpQxeBs37oB0UT6vb/2xfvVLnEfwi3bNieGxORWwj/EX9XSz1z8e7QYu7duRMft1roB0UT6fTA2xJPUfhpH4dlqYleMlz3xFrWXw+dk6eecLJa69IN2p9YNiCbS74O3Nw5Wqy4+jtu1bU4M2Pp4rCqpfows/Zy3TI4YvFvjxq0bEQvqemrXzFgYU10Ytmzaouinm+Nd6vVPBnp9lAHAwnh26wbEgnqqrDVuZfVHw6kKOLo2UrP4f6PK0j9L9lIZiAntKxJ1PSvV/grRfTeUaprDlr/ixbIvwCg4QNV5uEj786brmcgTgIWxGB+RKotdl34eTrvjDThVdgYcRpupp6RH4ddqKd9GTVs0JvIhWDh74vOuKb4U3bJI3bnctnVDYlrr4EH4Nv6Gl+P6TVs03g7EJ9QkzoNlz5QFlwHAwrqfOuFz3LvnbarcaIyGnfEq/B3fUJXjljRt0XjYSk3SPBY/xWOkBH0zuRAtvEfg62qmeIy+TVRd+ue1bkjMyRK1YuPrajDwauzSskEdtAgHqfX6p6tJmlkZNQQyAGjj3mpTk3u2bkjMy23Ve8tHtW5I9MX18TK1j8N38GBZzTEf2+G/cQJ+oCr2pe7MEMkAoJ1tcCjeKZPGRs1SvBI/kbvFLlqs9kf5kpo4+EapmNqrxbgXvopT8DrcoGmLYq0mtF+OMO75k0yAGRU3wC+1P2eShc0q/Ei9wltXrGkndS05Rfu+SnpLlgEOiZuoghdvkk1khtWW6gvuSKnpMI4WqfLOn1Hvsd+qVvaMs6V4oHqSeRJegR2btihmbUL7kUhyTa5Q+57vsZY+i4Wzo5rhf7H250YyfPk5Hme8ZrLvhter0rytj38y90yQAcCwZiW+gFuIFm6Mj+JK7c+FZPhzgapXf3PdtPq2u6u0P97J/JNXAENsMR6K3+F7UtN8odwKX1GbyjxeZoFHbzZV9eqPVK/zulLNLtvudlgGAKPhrmrkfYqqmHUnKVrSL4vUjo1vUsu/fqnea+ZLLuZqf1UV8p/qdd5+bZsza9l2d4xMaP8oIpl9zsaHVU2BzEqenaWqMMm71Z1N675Mup8/4JmGe0e7yW13L9D+eCWDzwQZAHQhF6qtTx9quL9gWtpQlWL+KM7Vvs+S8cwl6hy8jeGw+ra7rY9NsrCZWKQGAK8QXXEVjsMR6kN9hHoveUXLRi2wdXAz9Sj2gKv/3Etem8RwOUa9KvgEzlvgn32AuvA/XDfmKsTsvTIDgPGwXJUe/o1rBgXHqtm8o26RWjI5ebE/APtIdcUYHVeobYo/iB8P8OdshkerC38Kj0UGAGPsYhyvNkCZKue2a9p1bKZ2b5sqe1z9v0d0wV/VQODjOKtP/80D1UX/IcarXkGsXQYAMa1LXHtAcArOx6U9ZsVq/60l2KDHbKrKiq5+kd9kYL9lxHBajq+pwcD31au92dhKzeR/iuy8F1N75dLWLYihtaF6b77XHP/95bhcrVDIDmARs7OOumN/iCqz+2E1efAfa/l3FuEuqgbBA+RzFzPIACAGZR0pohPzc4V6JH4c/nL1n8epi9t/N2zXQtsVr1E7UH5L1Rb4jqoWSm1j/AQ8SXanjFnIACAiWvun617kj8PJrjtR9aaqMM04WqKWst4Pp+FT6njcU1a4xBxkABARC+FyU9/NH6fqWPRiHbVkLoWv2AEvad2IGG0ZAEREP/3DNRf21S/0fzf/Zacvx7/N878REVfLACAiZutytYR0qgv9RQP6mfsbr/f+EQOXAUBETOd0135UP3mhP8XCFpFaT62Lz/dVRB/lAxUx3i4z/d38xQ3btbrXqm1pI6KPMgCIGA+nu/bFffW7+dkWmVlIt8fzWzcioosyAIjojkvVTPs1L/THG567+dnYCB/D4sbtiOikDAAiRstVrnk3v+aF/lTDfTc/W29RRXAiYgAyAIgYTpeqO/c118wfp/Zp6Lp74KmtGxHRZRkARLRzlaroNtXd/Gm6dTc/G5vjQ60bEdF1GQBEDN4lrplpv/qF/njjcTc/Wwer+vYRMUAZAET0x1XqHfxUy+nG+W5+th6ER7VuRMQ4yAAgYnYuMXVxnOPVe/uYu+vhfa0bETEuMgCIuK6r1Pr46e7mYzDej61bNyJiXGQAEOPsYtPfzV/WsF3j6LF4QOtGRIyTDACi6ybv5qeqgnd6w3bFNXbAO1o3ImLcZAAQXXYOJvARuaMfZh/GZq0bETFuUmIzumwrvEvd6b8Ve7RtTkzhGbhb60ZEjKGrMgCIcbA5/kM99v8u7o8lTVsUsBve1LoREWPq7AwAYpwsUnebh+Ak/A+2adqi8bVYbfSzYeN2RIyrYzIAiHG1I16jJgh+Brdr25yx859yzCNaOQO/yAAgxt0yPAI/w9F4utqGNgZnLzX4iog23oMrMwCIuMbN8F41afBd6kIV/bUUn8C6rRsSMaZ+6eq5NxkARFzXJngW/ozD8FBZMtsv/4N9WzciYkydpCZBX04GABEzuSO+oOYKvFJ2qZuPffGy1o2IGFP/wr1x9uTfWCy7lEX0Yjv8L07Gl3Dnpq0ZPeuqR/95khKx8FbgITh29b+5WM0GjIjeLMWD8UP1YXouNm3aotHwGplTEdHCuWqfjR+s+T8swm1w+EK3KKJDLsGn1czaoxq3ZRjdDj+RV44RC+1wtcrp1Kn+x0WqItpfsPsCNiqiq36hBgJfxJWN2zIMNlSDot1aNyRijFyFN6jXlium+4eWXP0PXqxmBkbE/OyIB6l6AlvgBDX5Zly9Q2r9Ryyks9T7/g9g1dr+wcl66EepLTlvMdh2RYyNDdWj7+diP5yPE5u2aOHdFe9s3YiIMfJD3B1H9vIPL1rtrxfjk3jkABoVETUAeJ/anvi8xm0ZtE3xJ3VjERGDdTJepF499mzRGv//UnxePcKMiMG4HJ9TcwWOaNyWQfk4Htu6EREddxFeh7fhitn+y2sOAGAdtVvavebXrojowW/VQOBzuKxxW/rlAfhq60ZEdNgqfFRV1jxzrv+RqfZEX6UeI1yF28rSnYhB2l5NwH0Groe/Ge3XA1vj27LNb8Sg/Fg9pf+AWoI8Z1M9AVjdvupR3k3m80MiomdX4XvqqcC3sLJtc2btS6pQUkT014l4oT4+XZtpAECV8HwVXiBPAyIW0il4Pz6klvYMu0fhU60bEdExx6o1/Z+xljX9c9HLAGDSrfEx3LCfDYiIGV2p7qzfY3irdl4ff8TmrRsS0RG/UxP8vmpAe/bMZgAA66tJB8+Xd3wRLRytBgKfMs/3f332bdyjdSMiOuCn6sL/3UH/oNkOACZdDy9V1c7W7V9zIqJHF6r5Oe+1xg5fDTxVvaqIiLk7VF34F+wp31wHAJN2xMvxBNnmM6KVw9RTgUP0+R1hD3ZVTyU2WuCfG9EFq/BldeHvqXpfP813ADBpd7wSD5eJghGt/AMfVMuD/rEAP2+xGnzcfgF+VkSXLFev8d6A4xu3pW9upu5CrkqSpFmWq1oedzJY/zkEv2uSjFIuVftj7GQI9OsJwJr2xvPUvgLrDehnRMTMjlXzBD6u5g30y574vXy+I3pxtnpN9+6r/3ooDGoAMGkrPA3PVBXPIqKNS9Qjx/eod/bzsRS/wP7zbVRExx2j6vR/Su0BMpbWUU8Dfq39I5gkGff8XH0el5mblw/B75Akw5zv454Gf5M9Ly0adyv1euAhsnIgoqWzVJXB96uqg734NzWQX2dQjYoYUVeqan1vM/+nbAui5ejk+niWWkO8ZcN2RIy7lWrfgfeofQiumuafW6aqk910gdoVMQrOxfvwLpzRuC2zMgyPJ9ZXNcSfJ18sEa2doL7MPuq6uxK+AS9e8BZFDKfj1d3+x43oVt7DMABY3Z1VmeF7Sz2BiJYuw+fUU4Hfqr1Afi6fy4gf4y3qqdl0T8tGwrANACbthueoCoObNG5LxLg7Qq3o2bV1QyIaWY7P4634Q+O29M2wDgAmbawGAc9R1QYjIiIWyvlqkuy7cHrjtvTdsA8AJi1WrwWeh4MatyUiIrrtRLxdzYUZpl03+2pUBgCruymei0erCYQRERH98BN14f+62qin00ZxADBpS7WE8JnYoXFbIiJiNF2u1u+/E0c1bstCWn+UBwCTluLB6vXArRu3JSIiRsPpap+M9+Ocxm1p4cAuDABWt79aRvhQqVQWERHX9Su8A1/CisZtaWUDPK1rA4BJ26lXA0/D1o3bEhERbS3HF9SF/4jGbRkGL8BGXR0ATFoPj1CvB27euC0REbGwzlKVLd+HfzZuy7DYQW3l/Z6uV/W6XC3j2Ad3wiHGYGZnRMSY+z0ej53wCrn4T9pS7fexNeNV1vPHeKAqKPQmtYFDRER0w0p8EQdiX1Wj/4qmLRouG+Hb2HPyb4zTAGDSSXiRegzyeHkfFBExys7DG1Wp6n9Xe1bEtS1TT8D3X/1vLja+9b0vVyPEA9RB+djVfy8iIobfn1QtmB3wEpzatjlDaxP1ZOQ6VXQXW2NEMKZ+q/YcuD5eiL+1bU5ERExhlarSdxBuhg8a0a14F8itcSTuN9X/uFi9DzhwIVs0xM7Dm7GH2nvgWzJpMCKitX/hbeq7+f74UdvmDL0leDl+Zi1P+RercsCvXqBGjYpVOBT3kUmDERGtHK92g90B/ylPZ3uxk5r0/io1EJjW5CTAO6jRVVxXJg1GRCycq/Bd3As3VlvxXty0RaPjYWo/g9v18g+vvgrg+XjNIFrUEatPGjxAJg1GRPTTJXiPei19D7Vk7aqmLRode+E7+Bw26/VfWnMZ4P+o2ZSxdkeoSYM7qKcDeSwVETE3J+G/1CTsZ+G4ts0ZKVvh3Tgad5/tvzxVHYDXq3cuMbNz1fyAyUmDh8qkwYiIXhyGB6h5Vm9VE/2iN+uoORF/VfverPVd/3SmKwT0TnxErR+MmU1OGry3Ggxk0mBExHVdhg9hb9wZX5Obptm6P47BW8zicf9U1lYJ8An4I+4ynx8whv4mkwYjLoStnwAAIABJREFUIlZ3Gl6KHfEUdW2J2dkHP1QV/Xbvx39wplLAO6mNA96NDfvxA8dIJg1GxLj7hZqZvqt6vZwno7N3S/Wk5PfqqUnf9LIXwCL1jqHnpQVxHZk0GBHj4kp8EvvhtvgCVjRt0Wg6SN3x/0pV8lvU7x8wm82AdsNP8F5s1++GjIlMGoyIrjoDE+rJ8WPxu6atGU2L1MX+V/iBPt/xr2m2uwEuxtNxIt6AzfveovGQSYMR0RW/VRf8nfFKnNm2OSNpCR6plvN9TT32XxATqtjCXHKBqh2Q+QHzt56aNPgbc++PJEmShchyVXTmNmI+lqlJkSdY+D6cYH4DgMmcoWoHLOvnkRljk9sTX6b9Bz1JkmQy5+B1aj5TzN2G+A+1OqJVX07QnwHAZE5Wd7FzKkoQ17Gla7Ynbv3BT5JkfHMUnqSeVMbcbaZ26TtH+z6doL8DgMn8TVUp2rQfRywsVhtjfAsrtT9xkiTpflbiq7ijmK9d1YZ7F2rfr5OZYDADgMlcpHZyutF8j178fzdwzaTB1idQkiTdy/mqyty0+8hHz26DL6llkK37dc1MMNgBwGQmZ73f3QDWMo6pyUmDR2h/IiVJMvr5i6r5kknd87ME/66W8rXu07VlgoUZAKyeY/EMOcn6KZMGkySZSyZvzu4hN2fztYl69X2y9v3aSyZY+AHAZM5Xj7J3me1Rjmll0mCSJL1k8vXsDcV87WL43u/3kgnaDQAmswJfwR1mdchjbRarIkOZNJgkyeo5US0/ywTt+bs1vmg43+/3kgnaDwBWzx9Uzfx1e+6CmEkmDSZJ8kO1jexsq7/GtS3BQ/FL7ft0vplguAYAkzkLr5Y9B/oplQaTZLxyKT6Im4n5GrX3+71kguEcAEzmSnxabacb/bM/PiqTBpOkizkVL1FzgmJ+dsFb8S/t+7XfmWC4BwCr55d4OJZO31cxS1vgBeq9YOv+TZJkfjlcLT/Ld+T83co12xi37tdBZYLRGQBM5jS8FFtN03Exe4twT3xDJg0mySjlCnwC+4r5WoqH6cb7/V4ywegNACZzGT4k77f6bRe11fPZ2vdxkiRT5wy8AtuI+dpK3VS23JinRSYY3QHA6vmRzHDtt3XxGOMzGk6SUchv1ecyO6/O397qJnJc50JN0I0BwGSyxnUwbqE+KJdq38dJMm5Zjs+ruvIxP4vxABymfb+2zgTdGgBM5iIcjD1EP22uBljHa9/HSdL1nIPXYwcxX5vhv3CS9v06LJmgmwOAyaxS1fDuJvppkTqmh+j2LNkkaZGj8WSsL+brxngPLta+X4ctE3R7ALB6jsHTsYHop53wWpypfR8nyahmpRpQ31nM1yLcC99RN4Gt+3ZYM8H4DAAmc57a63p30U/L8Ej8XPs+TpJRyQWq0MwNxHxtjOfIK8peM8H4DQAms0qNEO8rqwf67eZ4vzx2S5LpchyehY3EfO2mduPrYrW+QWaC8R0ArJ6TVenMrUU/bYrn4i/a93GStM4qfFsV3Vok5usgfF2Kl801E2QAsHouxydVGcjor4PwZZk0mIxfLsa7cSMxXxvgqfiT9v066pkgA4Dp8js8SWbi9tsOeBX+qX0fJ8kg8ze1g1zqkszfTnijbGvez0yQAcBMyaTBwVhH1d3+qfZ9nCT9zGGq2EzmFs3fgfiiPDkcRCbIAKDXZNLg4NxUrdW9SPt+TpK5ZHJvkr3FfK2Lx+H32vdrlzNBBgBzyckyaXAQNlYzo/+sfR8nSS/J7qT9s516PZiaIguTCTIAmE8uV1txZtJg/91R7ce9XPt+TpI18wv1CmupmK8D8GlcqX2/jlMmyACgX/kdniiTBvtte7Xt6ena93Ey3rkSn8J+Yr7WwSPwK+37dVzzMjIA6HcyaXAwluIhsotXsvA5X81Az6Y887e1uvBkQN8+jyADgEElkwYHZy+122MqfyWDzImqkFWq9c3fPviIem3aul+Tyo3IAGAhcrKaNJiJQv21kdrg6Wjt+zjpTg7Hg2XgPl9L8CD8RPs+Ta6dH0920sQQNGZcMjlp8Jai3w7EZ2UiUTK3rFCTTvPZnL/N8UJ149O6X5PrZiXuMtlZE0PQoHFMJg0OxrbqHeOp2vdxMvy5UG0ks4uYr73wPlyifb8m0+cFq3faxBA0aJyTSYODsQQPxA+07+Nk+HIK/kvK9M7XItwH39O+T5OZ8941O3BiCBqVXLNTWCYN9l/uTJLJHIGHy/r9+doEz8Nfte/TpLd8xxTn/f8MQcOSa+ckvFgmDfZb3k2OZ1biEDVPJOZnd7xDvTpp3a9J7/mdqrR6HQ8ZgsYlUyeTBgcjs5PHI5fgXfJ6rR/uim+qJ5Wt+zWZXT5gLXPNdlYj5NaNTNae38qkwUGYXJ98mfZ9nPQnp+O/sYWYjw3UMttjtO/TZPa5UL3umtEXhqCxSW85D2/GblP2ZMzV1up1WCqUjW6OV4PkZWI+dsb/qe+a1n2azC2/N4snX3vKO51Ry+SkwfvIpMF+WkeNmn+pfR8nveXoq/ssn4P5uT2+rGoitO7TZO45WG2pPCu3l1nSo5qTZNLgIOyvNn9JcaHhzG9wf7UULeZmXTwBf9C+P5P55W9qFdmc3U1qNY9yMmlwMLbFK2Wf8mHJj9WktJi77fFqnKV9fybzy4Wq1Pys7/qncn/Zg70LyaTB/luGx6olNa37dxzzbdxuxl6KtbklPiNPtbqQlWoC87b67N/ldUBXkkmDg3FbNXk2g+XBZpV6L71vb90SU1gHj8SvtO/PpD/5KW5hgHa7+oe0/kWT/iSVBgdjR7we52jfx13KCjX/Yq/euyLWsLXaFyMrW7qTk9UN+oJYjOfj0gH9MkmbnKTeGW0t+mV9PFm2Jp5vrlCFS/LEau72wUdlPleXcrb6zl5PAzdUe2S3PghJf3M5PolbiX66kyo9mwJbvedSVWJ2hzkc70h1y67mNHUTvoHGFqttBFMxrZv5vbqDbX6idciuaqfHC7Tv32HNhXgDrjfHYzzusr9FN/NX9X08dEWtdsSHZPJTV3O+2h/9hqJfNsQzcaz2/TssOQ+vUBewmL3scNnNHI1HqCc6Q+2G+JxsDtHVrFJ7fD/ACJyMI2IR7o5Dje/n5ky8yDQ7k8VaLcK91eeydT8m/c0v1QTtkStqtQ++pf0BTAaXU1Sd/G1Ev9xQlewclxLcp+I5UpdiLjbGc9Vj4db9mPQ3P8CddcBtZQJK13OFKiJyW9Evm+B5OEH7/u13VqgtZB+k1qLH7OyOt+Nf2vdl0r+sUpOED9BBd5cVA+OQo/A09X475m+x2tipC493/6L2ptiur0dofNwF35BVJF3LclXb4qbGQDZSGY9cgHfixqJf9sJ7jdbqgQvxQdxmAMdjHGygBtR/1r4vk/7mfLzRmC5x3Q6vkk0nxiE/xIOxVPTDOriHKowzjBsRXaHeYT5Wlo/O1U7q4nCe9v2Z9DcnqHkvG4n/v+3kkdp3TDLYnIb/lUfA/bRYbdn9dvxdm35dqTZC+j+1c2gu+nN3IL6k5km0/rwm/c3P8EApuT6tO+Ar8o6r67kSn1cXruiv/fDfainusQZ3ITlevY54CLZYkN+su9bF41XRrdafzaS/Wa4mSO9vhLRec7grno0nYdPGbYnB+jPeo0oPX9S4LV20Pm6Cm6+WXVXt8MlMNRP/MrXM82T1ZOHk1f76bzhjoK0eD9vhGeodfyoedssFau7LwWqpa8zBRngWjtN+JJcMNhfi3epiFQtrsXpsvwW2l4vRoB2AT8tE6C7mRFWbIe/3+2gR7oXvGt9KaeOUH+OhskY8umMdPFxVdmv9+Ur6n5+puhZ5vz9ge6p3j6l13f38A6/E9UWMpq1UtczTtf88Jf3NcnzWiL3f78FIDGI2V7XDW818Thb2g/YltZ1uxCi4OT4su6R2MRfgTWoDvC66ResGzMYSNRP5Z9qfGMngc4xaQ7uJiOGyRC3z+rH2n5Ok/zlRlefu8vv9xWpS6ki6BT6uCpG0PlmSweYite3p3iLa2gT/hZO0/1wk/c9havfTkXg0Pk8Px0TrRszXNuqXOEP7kycZfH6mTtxlIhbOzniLbMrTxVyGDxmvG4z11BPWicbt6Jtlqhzp77Q/oZLB5wy8RnffzcVw2F8VWlqu/Tmf9DenqkJaWxkvS/F1dQwm2jZlMFJic3yyAl9Vu6e1LmoV3bBYPQb+qfbnd9L/HI6HGc/9ShapV+eTx2KiaWsGbGdVszybbIxHjsPzsZmI2dsAz8RftT+Xk/7mClWBdD/j7W2ufVwm6P4jkA1VGc5jtT8Rk8HnElWacx8RM9sWr8W52p+7SX9zhrrIbSsmXPf4TMA9mzVpYS3C3XGoVBkcl/wCj5JJg3FdN8NHZSVRF/NbPEY+99QN/jdMfZwm4GXYvVHjWtkNb5ZR/7jkn3iFWjUS4+3u+J7252TS3yxXO4/eRky6i6qyOt0xm3D1//lEk+a1tz6eoEaMrU/gZPC5Qp3r+4pxsq76nP9R+3Mw6W/Oweuwg5i0Dt5o5ifdE67+P6vw6IVv51A5QM2QTEnP8cjh+HfjORt4XGypnnD+U/vzLelvjsaT1U1cXGN3/EZvx3CCayYHrFC7HI27LdXeA3/T/iRPBp/J9cBbiq64Id6DS7U/v5L+ZSUOkb1CprKe+h67SO/Hc4Jrzw68wvhMCpzJYtxbTRpcqf3Jnww241gRrGv2xVdkkm/XcoGqxLirmMrDcLLZH9cJrrs84FLcccGaPhpuoHaFyqTB8chhxqcmeBcciO9of94k/c1fVG2GDcVUbqlWOs31+E4w9frAi/HUhfotRsh6eLze37Eko52T1OYvKS40nO4hu4N2LavUU9d7SHXP6eyEz5j/k64Jph4ATObbuP5C/EYjaH+1jjiTBrufi9U75T1Fa4vUXKXs+9GtXIR3qfkbMbWNVNGqfl1zJlj7AOAqnK+KKsTUtsQL1R7SrT9EyWCzCt/FveTuZKEtVd9Dx2h/HiT9y4n4D2wqprOpmuB3lv4e+wlmHgBM5qu43kB/zdG2WF0YvimTBschx+M52FgM0rp4mqzK6Vp+iPvJPJu12Vrd8V9gMH0wQe8DgKtwNh4nnTaTXVUhhnO0/6Alg82/8HbjV01z0DbEf+J07fs46U8uxQdwU7E2O6jvlEsMtj8mmN0AYDJ/UrOkY+3WUwOmX2v/4UsGm5Wq5vZdxHxspor3ZPDcnZyCF2MLsTZ7qKXIC7U/xQRzGwBM5tc4qP/HoZP2w0ekOMk45M/qsfUGoldbq5Ku/9K+/5L+5Gd4qFTbnMne+JyFf3U8wfwGAJP5gSqlGzPbQi0tO0H7D2gy2JyH/8POYjrbq33KB/24M1mYXK5Kqt9CzOTWpt+pbyEyQX8GAJP5Km7Sv+PTaYvUWtdvyKTBrmcFvozbi0m74n3qgtG6f5L555/4X5ko3ou7qmJjrftsgv4OAK5SF7MvyLaMs7EL3qAmWbY+KZLB5ki1M916xtON1B3icu37Ipl/foNHqR3oYnpLVcneI7Tvs8lM0P8BwOo5Qu0yuGy+R29MrKvWOv9K+5MjGWzOxmuMT6Gtm6sbgzztGv0sx2dxKzGTTfEC/F37flszEwx2ADCZPB6avVvgwzJpsOtZriYA3Vr3bIQn4ufaH+dk/hm3Qet87KqW8l2ofb9NlwkWZgAwmcvxMZkgMhubq/XQf9X+hEkGmyPUE6BRf2J2WzV4nc3WpMnw5kg1kBvX11azcRt8Sc37ad1vM2WChR0ArJ6f4sFYMoeDPI4W4e74ujxG7XrOUJ/LGxgd2+JFage31scvmX9WqK2V7yBmMvl+f9TqvUzQbgAwmb+rWvqbz+6Yj7Wd8Xr9rw2dDF/+gJcbztU1m6lB/NdlUl9Xcj7erCYmx9ptqpZ0D+P7/V4yQfsBwGQuUcuCsuNa79ZVkyx/qX3/JYPPcWrgt782NsDd1IqVI+RJVJdyLJ6pSjDH2u2qalcM8/v9XjLB8AwAVs/3cG/ZcW02/k2VkUxBlfHIKaqy5PNwR4Mps7oObqcm8P7EwpUoTRYmq3CoerWY79qZjdL7/V4ysUgNAF7Rx4PUT3/Fwfio2pM9ZraZWmf+DFVbOsbHaThqtZykJt5OleXq3eUO6pXSLqv9OfnXO8r67i66WNVieKfa1TKmt0S95vpP3LJxW/rtlQznE4A18y/1yGWUJkW1tkg9rj1Ed0asSf+yUh7hj1v+pi5km4qZbKKO1cna99ugMsFoDAAmsxJfw52n6bSY2k5qo5Uzte/DJEkWNj/C/WUb91505f1+L5lgtAYAq+doPFnWps7GMjwSh2vff0mSDC6XqTlBNxO9uLN6WjpOT8UmGN0BwGTOUXe3qU41OzfHB9T7wNZ9mCRJf3IaXoqtxEzWVzeRR2vfby0ywegPACbT5ZKqg7SpmkmeAi5JMrr5hSpGs1TMZEe1nPYc7futZSbozgBg9WSHqtlbhINU9a9MGkyS4c+V+JR2dSFGzW3VhlQpWlWZ6OqkkP3VB+Pvqora1m2bMxKuwg/xILUM7DWqJG1EDJez8Gq1VPPRqihTTG0ZHovfqk2pHipPSa5lQvuRyKBzuaolsE9/DtnYWEc9Vvyp9n2YJOOe3+NxqgJorN226tp2hvb9NqyZYDwGAKvnJzIKnIub4b2yw1uSLGRWqOpzB4pe7I9PStXKXjLB+A0AJvOPq3/37cVsbIJn48/a92GSdDXn4f9UDY9Yu8nd+H6hfb+NUiYY3wHAZJbji6qeeszOHdWxy6SaJOlP/oynq42XYu22UkseT9O+30YxE2QAsHr+jGdhYzEb26vz6HTt+zBJRi2r8E3cVfRib3xYFTtq3XejnAkyAJgqF+LdhnMP9mG2FA/BYdr3YZIMey5UG/Jk066ZLcED5buln5kgA4CZ8mOZNDgXe+FdxqOmdpLMJifg+Wo+TazdZvgvtbNl637rWibIAKDXZNLg3Gyktib+o/Z9mCQt8wPcVzbl6cWeeI+UKh9kJsgAYLZZrqpJ3VHM1oGqXPOV2vdjkixELlV7btxUzGQR7oXvqnkRrfuu65kgA4D55M94pkwanK1tVYXGU7XvwyQZRE7BS7CFmMnGeA6O177fxikTZADQj2TS4NwsUaWHf6B9HyZJP5Jys73bDW/Hv7Tvt3HMK8gAoN/5sXwBzMWN8A5coH0fJslscgU+gX1FL+6Cr2Ol9n03znkiGQAMKqfLpMG52BBPxZHa92GSrC1nqM/4NmImG6jP9Z+077ekcgAZAAw6mTQ4d7fBp6WudzJc+S0eo3aai7XbCW/Eudr3W3JNjlWTLjMAWMD8SSYNzsX1VMnPv2vfh8l4ZiW+ituJXhyoNjFaoX3fJdfNkyc7amIIGjNuyaTBuVmC+8syoWThcjEOVhPWYu3WxePVtsWt+y2ZPp9cvdMmhqBB45zDZNLgXOyBt6pd01r3YdK9nK6W8W0uZrIdXoWztO+3ZO35iTVeXU0MQaOS+sJ5hUwanK318ST8Tvs+TEY/f1Dv99cRM7mlmqOTwl6jkeNMUZfif4egYck1mZw0eIc1OypmdEu1HOty7fsxGZ1M7sZ3ZzGTdfAI/Er7fkt6z9nYfYr+9NghaFwydTJpcG62wotlA5Fk7bkM78eNxUy2xstky+9RzG9xg+t2adl7CBqYrD2Tkwb3mqYPY2qLcR98T/s+TIYnZ6onn1uJmeyDj8pTtVHNwXpYrnr4EDQ06S2H4SEyaXC29sR7cYn2fZi0yZ/UfJF1xdpMluj+ifZ9lswtF+DBa3bsdA6SZVWjlslJg9tN0Z8xvc3xQpysfR8mC5Pv4R5iJpvjBfLZGPUcYS2P/KfzzCFoeDL7ZNLg3OQup9u5Qj26vpmYyeTTsYu177dk7lmON5tHhcoXDsEvkcw9mTQ4N3nP2Z2ci9eoLadjeotwLymq1ZUcqgZy8zYxBL9MMr9ciHfJpMHZykzn0c0/1ePrja7Tq7G6jfBsHK99nyXzzzEG8HrrjUPwiyX9yWEyaXC21sEjZa3zKORk9dRrvak6Mv6/G+Bt+Jf2fZbMP+eogdzAvtcfqLa7bP2LJv1JJg3OzS3xGal2Nmz5Cx4nA9uZ3BlfU5sZte6zZP65Ug3kFqRE9Zb43AL+csngk+2J52Z7vFrqnbfOH9TeGYvX3l1jbX2129sfte+vpH85BDfUwEPki6+L+TOeJZMGZ2M9PAFHat9/45TD1aS1mN4OeJ16PNy6v5L+ZKW6Cb+5xrZW+zu3PiBJ/3MR3oObitm4A74se54PMt+Tp1UzuQ0+r57ute6vpD+5Eh9Su54OlfvgaO0PUDKY/AQPk93QZmNnvAnna99/Xcgq9bhz/9l0wphZhkeroi+t+yvpXy7BO7CjIbZIzZL+q/YHLBlM/qn2+N5B9GpDPF0tzWndf6OYFWrCZZ5ETW8btY/BP7Xvr6R/uQCvVU/aR8ZSPBWnaX8Ak8FkuXrMfZDo1SLcDd+SIiu95Ep82DTblQa4BT4uxaq6lrPw39jUCFsP/6X2HG59QJPB5Vg814ifrAtsD7xTFWdq3X/DlstUwaqd5nx0u22JmoD9M+37KulvTlHfpevrkI3VWvMLtD/AyeBysdpHvfnM1BGyCZ6PE7Tvv9a5SM2ZSLneqW2BF+Hv2vdV0t8cjyfq+ByrjfEcKTc5Dvm5mg8y5w0oxsxi3Bc/0L7vFjrnq3klW877KHbTTdTAOltWdy8/wQOMWf2KRbi3WsrTugOSweZMNYklj3N7Ny5f+H/HS9RTkLi2xWpl1fe176ekv1mOT2NfYS/1ZXep9h2TDC4r1BKuu6kBYMxsc9175Hu5KmByV2N219OjjdU74Kyk6l7OV/vpZAXVFLbAi9UkiNYdlQw2x+M/sJnoxRI8SD0ubN13c83v1SYlW/T52HTF7mqddyaFdi8nqFffG4oZLcW/qxKfrTsuGWwuUVWtbiF6dXO8FSdp338z5TwcjH8byJHohrvgG7IpTxfzU2P4fr+f9sMncYX2nZkMNr/EY7Cu6NUt8BrDVWDob/igWqaWvpzaBqpOyp+076+kv1muilbtJ/pmWzVL+EztOzgZbM7GG7CLmI0b46X4rYXtr7PUO/2nqL3lY3o7qnP7XO0/Z0l/cz7+T97vD9S6eLza+rN1hyeDzUr1aPSeMmlwtjZXGxI9Gx/Ar1SNhvn2yQU4Cl/Ff6rXEembmd0OX5TNobqYyff7G+mQUfhQ314VULmfmiQV3XUi3oePqPfKMXuLsBtuhl1Vlc7pskJNxj1FrUCY/PPCBW/16FqGh+N5Mseli36u5uJ8TZX1jkZ2wZtlx7VxyGX4qOwGF8NrW0zgDO0/L0l/sxyfle+fobQhnom/aH+iJIPPb9TroPVEtLevTFjuas5VczeGeiveKIvUe+PvyI5r45BzVf34TECLhbZIvYL8sfafg6T/+aOa3NqpjXnGyY3xHv2ZAJUMd1bhUFU+NetuY5A2wDNkT5MuZqV6r59tzjtkc7wQJ2t/giWDz0mqquRWIvpnO1V3Icv4upd/4W3yJLHTluDBqkJT6xMuGXwuxydwKxFztzc+Ju/3u5jj1HLZTi3ji5ndAh+XD/W45Hd4krzPi94swj1kN74uZpWaI5YaI2EbvEKW7YxLzlPrd/cQcV3r4cn4s/bnatLfXIx3q7lhEdeyDI9UBR5an6jJ4LMK38Ld5S4g2FrdCKTcePfyN1W5MruPRk9urkqoZvXAeORYNas723WOnz3VZ/0y7c/DpL/5kezGF/OwqSrleZz2J3My+JyvqkruIrruIPUEKLVCupXL1Bbje4vok0Vq3+6vyoYe45AV+IraUCe6YxkeiyO1P8eS/uZU/De2FDFAO6q1wHlXOB45Ek+UksOjbGO8CKdrfz4l/c3h+HcsFbGAMmlwvHK2GvhtL0bFFmpjnvO0P3+S/uUKVd9jPxFDYHLS4CXafziSweZKtSNYigsNr23V/hAXaX++JP3LGWpAt42IIZRJg+OVX6unQOuIYbCzWuedGf3dyhF4jHrqGjH0FuGuMmlwXPIPvBzXEy3cSJXqXa79uZD0J8vxedxGxAjbEa+VSYPjkMvxUfybWAj74AtqB7fWfZ/0J+fgddhBRIdMTho8XPsPWTL4/FRtPLVE9Ntt1Br+1n2c9C9Hq706stomOm8fmTQ4Lvm72op6czFfd8Fh2vdp0p+sVK9J7yRiDG0mkwbHJZfgfdhLzMYi3E9NuGzdh0l/cj7egl1FxP+fNHiITBoch3wP95ZNiNZmMR6Go7Tvr6Q/ORbPlD03Iqa1k0waHJf8Fc9VleqiLMXj5alYV7IKh8qumxGzkkmD45N/4e3Y3fhaV+3IeJL2/ZHMPxfhYNxQRMxLJg2OR1biG2qy27jYUO3Vnjr93ciJeL4qihYRfbSZ+nDl8Wj382c8HRvopr3U1stna3+sk/nnB2qy5mIRMVCZNDg+OU/Vtd/F6NsET8EvtT+uyfxzqXoyeVMR0UQmDY5HVuAruKPRc3t8XF5hdSWn4MVqt8WIGALL8CiZNDgO+TvehgMN7yPXHfBStdKh9fFK+pOf46FqpUZEDKl98EG54xqHnIn3q2VWLXcl3AT3xTvwJ+2PS9KfXIFPYF8xNrJesxs2U2uqnyHLccbBBfimmpB1lCq8csWAfta6uDUOUqsW9pd9D7rkTLxXVa88s3FbYoFlANAti9SX9LNwH/miHhcrcLzaaGUyf1TvcHuxrtrNcifsvNqfN8ABWL/P7Y32fqee4nweVzZuSzSSAUB37YSn4cmyf/24WqW2Lp4uS9V5so18F4yDFWpTnneoOUQx5vKh775lakLPM9X2qhExXs5Ty/jeg1MbtyWGSAYA42UfNRB4lO4WnomI8ie8E5/CZY3bEkMoA4DxtBkepwYDmTQY0R2r8C31mP+HjdsSQy4DgPG2SM3ufpZa2pVJgxGj6UJ8BO9SdfojZpR5TPtpAAAEqklEQVQBQEzaEU9VJVy3adyWiOjNX9VufB9TO/NF9CwDgFjTOniweipwu8ZtiYipfV895j9UFfKJmLUMAGJtbqbmCTwaGzVuS8S4u1RV6zsYxzRuS3RABgDRi03wWDUY2LNxWyLGzSnq3f6HcH7jtkSHZAAQs3Un9Xrg/rJZSMQg/Uw95j8EKxu3JTooA4CYq+3VpMGnYrvGbYnoiivwOXXh/0PjtkTHZQAQ87UUD1RPBe7QuC0Ro+qfalOe9+Osxm2JMZEBQPTTTdSOhI/Fxo3bEjEKjlB3+1/A8sZtiYiYt43VQOCP2u9zniTDluXqMf+tRTSUJwAxaLdXrwceqGoMRIyrc1yzKc/pjdsSkQFALJhtVZXBp+H6jdsSsZD+qB7zf1ptwxwRMZaW4kFqo5LWj2KTZFBZqZbv3UlERFzHjdV2pRdo/4WdJP3IBXgLdhURETPaUNUTOEr7L/AkmUuOU3NdUjI7ImKObovPqIIorb/Uk2RtWYXv4J4ynyoiom+uh5eqOuitv+iTZPVcjHerV1gRETEgS9S+A99Td1ytv/yT8c0peAE2ExERC2oPvE3tiNb6YpCMT47AI2Tzq4iI5jbAk/B77S8OSTczuYzv9iIiYijdCp9UBVZaXzSS0c8l6v3+HiIiYiRshRfjJO0vIsno5R9q0ukWIiJiJC3GffBtmTSYzJyj8DgsExERnbEb3ozztL/QJMOTVTgUB4mIiE7bAE/HMdpffJJ2uQwfxJ4iImLs3BXflNcD45SzMIGtRUTE2NtdbdF6ofYXqGQwOQZPxnoiIiLWsDGei79qf8FK+pMfSH3+iIjo0SLcW5Ucbn0BS2afVfgSbrFmx0ZERPRqT7xXbfrS+sKWrD3L8QmZ2BcREX20mdr85STtL3TJtXO5GqTtOm3vRUREzNMSPBA/1v7CN+65GG/BdmvrsIiIiH7bGx9Wa8pbXwzHKefjVdhy5i6KiIgYnK1U7fjTtL84djln4iXYpLduiYiIWBhL8TAcrv3Fsks5Bc/B+r13RURERBv7qa2Jr9D+Ajqq+SuehHVmeewjIiKa21aVnj1D+wvqqOSPeISacBkRETHSluExOEL7C+yw5gg8QKr2RURER90Gn1eFa1pfdIchP8Pd53VEIyIiRsgOeB3O1v4i3CLfw+3nfRQjIiJG1HpqsttR2l+UB52VOAQH9OXIRUREdMQd8BWs0P5i3c/8DS/Hjv07VBEREd2zM/4P52l/8Z5rLsWncGeZ2BcRETErG+Bp+H/t3a9KBUEYh+E3GoQDFjFaThHxCrwRk/V4LV6NWavFaDUcm1dgMhh2QYOCYdf1z/PAj4UJw86UGRhmvtuGMrdLL+pfyV21qVYzzAcA/DsH1UV13c+7QXBfXVbHs40eAGivOq+uWqYY0bahENJZtT/rSIHZOaOD32m3Oq1O3mXdtC/pPTXc178Z8zBh38DCbADg79ipjnrbEByObZ/lpXocs/3g+/yN/w4AAAAAAAAAAAAAAAAAAAAAAAAAAAAAAAAAAAAAAAAAAAAAAAAAAAAAAAAAAAAAAAAAAAAAAAAAAAAAAAAAAAAAAAAAAAAAAAAAwFReAR1JaGRAcXqsAAAAAElFTkSuQmCC;" vertex="1" parent="1">
          <mxGeometry x="667" y="300" width="20" height="20" as="geometry" />
        </mxCell>
        <mxCell id="UKnU140eOlKVYdsRxSBc-29" value="" style="shape=image;verticalLabelPosition=bottom;labelBackgroundColor=default;verticalAlign=top;aspect=fixed;imageAspect=0;image=data:image/webp,UklGRp5fAABXRUJQVlA4WAoAAAAYAAAArwQArwQAQUxQSItUAAAB/yckSPD/eGtEpO45jNs2cmT2X/fmdPeLCLVt2zB22tRzReJDMzWOYTuSz8X69S28X/9PMTWcAdTz9I5e4K+RP+z/HMlK/+9ZVX0OHHJGJCpRspjBAIgBTIDvDwKKgr4NGFHMCsrbrAhmBcScBcQsmAXJGUyYARWQDCd1VT0ff+zs7Pbs7OzhzF7XJ6L/E+DAbdtImuv//542E3iOXUb0fwL0//3P//zP//zP//zP//zP//zP//zP//zP//zP//zP//zP//zP//zP//zP//zP//zP//zP//zP//zP//zP//zP//zP//zP//zP//zP//zP//zP//zP//zP//zP//zP//zP//zP//zP//zP//zP//zP//zP//zP//zP//zP//zP//zP//z/xg2piWFCSE2KYb6TmDT12MT5S5KktOOhx5/ynZ/+4lc/+tanjjvysRsHSYopzEcSJe35sesy/d97+emvevgqkkIK840k6TmXANQ251JKyW1bmOg/n/KcjSTFNJ9IiNr9PHCutjGAse2SM8DtZxyxgaQU5gsJ0isqudg2/dvYNRfg1i8+NUoxzgsSpI9CNjbTads1F+CaYzeVQpoHRPokpWIz7TauucJdX3i0pDTfR9I7ycamU9suGfjBMySleT2S9scV07mNnQ0XHSopzd8RtM5NFMxA2jgXuPQ5ktJ8HUkfocUMqo1LgcufLcU4L0fULgV7Mhv3xp4WsHEp8Mu9pRTm4Ug6lYzpadu5AtQ2VxtPB9i4FDhzFynNuxG01T3YTLRxNiy9977lAM7FtqcBbJwr5aR1pTjPRtJbyJNRgbOftfWGG+/4zDd/40bAuRp7amDjDP96sZTCvBrSpRR6msqyjz5Ok6/+uPddC+Ri21MDG2f4zcOlNI9G0A4tdg/Mkn2lkEIIITVBUnrCqbdDzTaeGtjUDB9eVWn+jKSjKL3szPu1MKrPmCQ94PXXAbkae0rYOMN1eyjNo/FhWtOLvIuiphiTlA74XoZcbHsqYOOW9rkKYZ6MoLPIvch8Q1FTD0nSzif+C2q27amATYa3SXF+DOl8Si8Xnq80DZJSkNb530uBbOypYFPNKVKaHyNdRaGX2U9xeqSYJD3th0A29hSwceYHi9TMi9FcQ+1j3+mTQpL0sK8VyMbuD4xbrt5KTZgHI1xMca/Kc5SmT1IK0q6ntZCN3R+Gltv2l5r5L/TjPlreoaYTKUZply+bWozdFzYZPrCKeoeYUtOklGIMIcwrEXUamd6Fc9V9TNIe34NcsfvCppg/HLbOGqs2mnps4rwRjd5Edg+b+7ZQ6EqKUXrKRZCN3Q82znDPf/92zQXnnvWlT33wuNe9+LBn7P2IHTZbd4EkhSaG+SCinortCTjzWqXupBill96CC3Y/YFMqU67LF9/7+88f/fBVNbGJYb6HoI3uZBIKVwUNZpI2+gxkY/eDjV1rLSXntm1zqWZS//2bb3j8OprYxHkdJJ1DpqddeYbSQEiN9MTf44rdT//GfdacmXjrj49/0nqSFFOYvyHpGLLdg8L5GtiQtMqHIGNPU982ds3ZALf95K17LpIUmjBPQ9DWS+iFXThIaUCkJB14Dy12ZxNt7FpaA/zjS89/oKSQwnwMCjqbjHtQuDxocEOjnf9OCx6EnsauOQPc/cNXPVhSjPMwJO1PdQ9M5nVqBkZqtNHFtMYeEMDGrrkAS75/5IZSSPMuSLqEgntV7tpccXDUaJUfkiv2wEy0sXMGbj3lUZLSfAtJzye7Bybz7YFSkk6Hgj1IgI2dC3DOwUlK8ytI4XIK7mEXXqRmgBSlY6Gt2AMF2LhmwzXPjwpxXoWkAynugancu7XiACkE7fMXaHPP4t6DANh2LnD1gVIK8ygo6FwynoDJ/FYKAyQlrfWee+iz5jbnUkqt1T2xpwtsXDJ8fycpzaMQtXvBdg/TcrLSQClJWx535hlnnHnGWZfdZabomttcbeNpARuXwvL/W6QY501Q0vtp6YHtynPVDJRC0qRhvUc959XvPe2bP/7tVdffdOd9Swu9a1ttPB1g4wzXHySlMF9C0KI/UvAETGX5Q5UGSgop9FSfaeGiNR+w9R5POuw1J5993X2Ac7XtaQAbZ/ju9lKaJ0FJ+2DbEzCZv66rOFh9hpiaJgZNMW120Ml/BGquxp4a2JTC0neuqhjmR1DSibTYPUzLOVKYGVMMIcbUJE1cuM/H/gbkYttTw8YZ/vgUKc2PEJQuI9MDm5YTlYZAnyElSas99Qu3g3M19lTApmb43EYKcT4EJe24lIonYFx5vpohMjEmSRu+9FdALrY9FbAplVuOkpr5ENToKIrtCZjKsocqDRdJKUp65Cdug1KMPRVsnOFH20txHgRFnUqLPQGT+ePqCsNGCknSA17/O6jZ2FMAm1pY8kYpzYMQ1FxGZhLT8mXF4SMpJmnBwT8HsrGngI0zXLi7lOY9UNKD76DgCdguvFjNMJJCkrT3d4Bs7P7ApmbK8VIz74EaPQ0bT8BUlu6oNJQkpSA9/MsFsrH7w4YMF+4upfkOlPRWsu0JmMylSWFISTFKu3ypQDZ2X2DjTDlOauY7UNC3aLF7mJYPKw0tKUZp169BLcbuCwwZLn6oFOc5iFr992R6YLvyNKXhJcUoPfL7UAp2f9i4Jb9eauY3UNIuS6h4Aqbw740Uh5gUo7T/xZArdl9gyPCTzRTDvAZqdBTF9gRMy3cUhpoUg3TEXyEbuy9saub2Q6Q0r4GiPk+L3cPOHK1muElJWu2di6kF2/1gQ4ZTV1Oa1yBo1evI9MBUlj5EachJSXrwVyFX7H7Aphau31OK8xgoaddlVDwBk7lIs2BI0n6XQzZ2P9i4hbdKaR4DNTqKYruHaXmv0tCTYlR8832Uit0P2BT4/vpq5jFQ1Gm02AC2zWOVhp+UpK2/A9nY/WBTM/98nEKcvyBowZVkemAK1y5UmAWkRjrs35SC3Q8YWnijlOYtUNKOS6h4Aqbl/UqzgmLUBl+G1tj9YFPgzHXVzFugRi+g2O5hw8MUBynEmFKcEVIjHXwjtWD3g03N/PMximG+AkWdSosNYDK/0aDGJmrSEGaEQtQ6p0Br7D6wcUv9XynOVxC04EoyPbAzL1EajImrb/GIpx54+P5SmhFSkg78D7li9wE2BU6W0jwFStplGRX3oHLTugqDsNZ+r/78+TcvrQAflpqZoZC08dmQsfvBphbOXV/NPAVq9CqybQDT8j6l7oI2uZyerqVy/g4KYUZIjXT0MrKx+8DGLf94uNI8BQr6AZlertyzuUJnStq15FzdM7PkFVKcGYpBO15CLdh9gKGlPUKK8xNEbXk3FQOYzIlK3anRB2ixwZDhi1FhZkiNwgchg/vBJsO7pTQvgRodTXYPXLlrM4XugtKlZGywqZkfBYUZoiQdeAetsfvApla+0SjNSyDpF2Tcw5njlbpT1NZ3UrDBxsv5iOJMUUja6rfUit0HNs5cuLGaeQmiHgHuAZV/rKlBTNoHKgYwruylOFOkRvowZOw+wLjlxl3VzEegpE+S8QQ7c5TSAKjR83DFACZzrsLMUZSecy+tcT/YtNzzRKX5CII2u5tKTxfO02AmvYFiDGBX9laaOQpJ219LNnYf2GR4nmKYf0BJHyDbPWz2UhwERZ1Mxp5A5kea2Y0WnYErdh/YFHiNQph/IGizu5ks82mlgQjSd8hMwK48V3EmKUknQMbuA5sC/yfFeQcU9RVyD1z5z7oKg6CoNf5AwRMo/CFpZkfpkGW02H1gUyufkOK8A0kHUe0eLhyhNBBq9DjsCbhy3YIZJiU99C+0xn1g48KXpTjfQNC6t1B7QOaHCoOhqO+T8YTCRWHGqdH655ONPRkYZ77fKM0zoKAzyfS0WbadwqDsQ3WPzNkKM06N4tcpFbsPjFvOW0NpnoFGx5A9SeatSoOhoJ+RMdDyMaWZpyh9CAp2HxhaLl5LaX6BqIdW7AlQuFSDmnQA1cYu/O9QUJReAQW7D2xarlxfaV4BaeH11F423kNxMCSdT8E2eSeFYaAQ9axlZOw+sGm5ZgOleQWiTiczSeadSgOS9GyKTeEiDc1Gj76djN0HNi3XbKA0n0DSURT3gMKVQYN7OcVkXq5UhRrteCMtdh/YtFyzgdI8AkHbLsPuYcMjFQck6QgKhb+sqiHaaIs/0WL3gU3L1esozR8g6WIKvZ15t9KASM3vyJVnKg0RNdrwclpwH9i0XLKa0vwBSSeQ7R4Urgga1KSXspz3KGqoJq3+a1rjPrBp+fUCxXkDoh5mJrGpD1UcEGnR3zhRQzep+TGtcR/YtJwTFOcLkHQhhd7OvFVpUJJe83YpDBslhR/QGveBTcsZUpgvIOkNZLsHhfM120fpe7TGfWDccroU5gkI2nYZk9i0OygMThxKitL3aI37wDjzQcV5AhR0DplJMscoDc6wjtLZtMZ9YFx4vdI8AUkvptgTIHOOZv8ofYcWuw9MNc9TMz9A0APvYhKb+7ZQmO0UpR/TYveBqbCfmnkBFPVtMpMUXqQ06ylq4Xm02P2Ywr27KM0LkPQcij0BMmcozH5KWuNyWuzJsMn8fUPF+QCC1v0PtZcrt22gMPspaf3f02JPhk3LRQsU5wFQ1GfJk7hwiNIIoKTN/knGngyblm9qXsCk/an2BMh8SXEUUKPtbiVjT4btzP8pzQMgrfoXKj1d+c86Gg0bPWo5hX4wrhyhZh6ApA+T3cuVA5VGAjV6FlTcB6ZSHq00/he1F7Yn4MxnFUcDNXoZ1bgPTObGjRXH/qRwJYVelRvX0KgY9W6ycT+m5ZdSGPtLOp5s93DlGUojQpA+R4s9GTYtH1cc+4vaudALZ76gOCIoSD+nxZ4M48JRasb9JP2GQq/KresrjAiKWu+vZPrBVJbvpjTul/Rqst3DhecqjQpK2nUJBfeByfxukcKYX9AW99ALMt9RGBnU6EBccT+m5auKY36K+ha5l829myuMDEp6C9n2ZNjOvELNmF/SQRS7V+a1SqODgr5Aiz0ZplIfpTTeJ632dyq9C1cEjRTpEjL9YAp/XVthvC/pA2R7gl3ZV3F0UNKD76DgfkzLt8b9onYpTJb50kihRs/AxpNhO/NSNWN9CvoJuQc2d22qMEIo6V1k7MkwlSUPURrrSzqMYvfKvF5plJD0I1r6wWQulMI4n7T636n0rvx5kUbKqPX/ScH9mJb3KY31Jb2TbE+wMy9SGiWU9Dgwngzb5olK43xBW97LJBSuihotG72djD0ZpvD3dRTG+BT1ebINYBf+R2mkkPQzMv1gWr6iON73aDwJhcuCRsuoLe6g4n7swmFqxvgU9AMyBrAzL1QaKdTo/1FtT4ap3LKxwhhf0j5U96Lw50UaMZM+TUs/mMw3FMf4FPRTMgYwmWPVjBZBq1xHwf3YhUPVjPEl7U91L1du3VhhpFDSnmB7Mkzl5o0UxvcU9FMyBjCZU5RGCyW9l0w/mJavK47xRT0Bu5dt9lQaLYLSlRTcj104VGl8T1FnkTGAyZyvUTPpkWA8Gabynw0Vxvn2MO6BnTlazWihpBPIfWFaTlca31PSaWTcg8qdWyiOFlK4lIL7sSv7KY3vBW1xN9UGMJmzR46kR4LtyTCFaxdojD/pODK97MIRakYLJZ1ISz+YzDuUxveC1vgbBQOYym1bKo0WQWv8lYL7cWX5Topje0o6guIemMxlC5VGCiUdRLE9GSZzrsL4noLOIeMeJvPTqDRSKOqbZPrBzhylNL4XtWvGNoBNy48bpRFji7uouB8qN2+kMLanpPfS0gNDy68WKY0SavQqcl+Ylk8qje8FLfoTBU/A0HLRWkqjhKRLKbgfm/pQxbE9Je1HtT0BQ8ulayiOEklPorofTOaHCuN7SvooLfYEbFp+HRVGCEV9nYz7wC48XWl8L2jBNWTsCdi0nD5qbLOYavdD4XyN8yfttpyMPQHjzGFKI4SS3kmmH+zCM5XG95T0TCjYEzCFG9ZRGCGCVv8LBfdD4XyN9Sc9s1CwJ2BaXqM0QijpuRT3g105QGmMT432WUxhEheuiBoxL6Dgfsj8UGGcT432XELFE7DNXoqjRNJTqO4HGx6uOM6nBTqE6skKL1UaJRT0IzLuK3P6mJ+SvkbuhVveqGakiHoUdj/Y3L25wlhf1MNgssyxI4aivkLGfWXepDTWJ+m3lEkKRymNGjssw/1A4fcLNO5/bh/mKYqjhZI+QcZ92IUDlcb5kp5NdQ+bZVspjBhBWy/G/WW+ozjOp3g1hV6VPy3QyJn0GbI9GTbLtlMY30t6JsXuQeariiNH1G6VKWTeqTS+F/R98iTOvFrNyKGo75H7gcqfFmpsP2jLxdhMtMk7KYweSQdS7D7syrOUxvWSXkKZrHBV1Ei66l+o9OvMWYrjekHfJtPbLScrjSJJ7yXb/Zil2yiM6Wm1G6nuYVf2H02ids5MIXO80nhe1KPBk1T+vppG06BzyfRduX5Vjec3ehXZ9Mp8Qmk0SXohxe7DLvyP0lhe1OlketqV/UaVoA3/S+0HZ36kMJaneAXFPaj8eRWNqlGfJ9v9mLq74hhe0Kb34R525gNKo0rSk6lTyHxaaQwv6WnY9IKHKY4qUrqWQr+u3Lmpwvhdo+Noe1E4XyNs0pvJdj/OvE1p/E76PpmJduZVSqNL0BZ30xdU/rpIY/hr/JvqXty1qcLooqTPku0+7MIRSuN2UXtj0yPzVUWNsFGPwH1B4QKN3SedQNvDruyvNMoo6Bwy7sOu7Ks4ZiedT6Fn5U8LNdomHUhxf5lvjdsFbbsMe4Iz71cabaR4NYV+bdqHKI7VNXo52QA2PEJxxEl6FdnuK/NhpbG6oDPI9Kj8rtGoG7Tef6j068otGyiM02mt/1Ddo+UTSqOOkt5Dtvtx5jVKY3RR+2L3qhw8AgVtdS99QeG6RmP0jY6nNYArd2yoMPIo6VSy3YddOFhpfE76IZmehZ9pFI7avdIfmXMVxujWvoXqCW55n9IIpKgzyXgybLOn4rhc1J5gelQOHpUeh91f5mvjc41eQZ6ExVsojEIKOoeMJ8OmfYjimFzUaWQmunJN0mictD/V/WU+pjQmJ11M8QQyX1MYjST9loInw5U7N1UYiwta705qD7ccp2ZESjqE4r6cOV5pLC7qMWB6VJ6tNCJJ8SoKngwqN6ylMA6X9ALKJLQ7KoxKSS8kux87c7TSOFyjd9H2qty2pkboVf9Mpe/CtUnj8EFfJzPRhSviCJV0DNnuwy78P6UxOIULKe6R+Y7C6BS09k1U+qHwa43Fr/ZvKj1bTlYanZR0HNmeDLvyRKWxt6CtluIezhyrZoQK2vg2al9kfqAw9ha1F5MVjlAaoZT0AbI9GbbZU3HcLel/qJOYpyiOUkFb3Ut/ZM4Yf2v0SvIklIeOVkr6FNmeDBsepjj29g7ayRZvqjBSRT1kOf2R+fLYW9LJtPSs3LmmRuyoL5HxZNi0OymOt0V9gexJblg0eu1h3BeZU5XG26Tvkpnk9wtGLUWdRcaTYbNkG4Uxt99QehUuCiPY47H7IvNRpfG25hrqZD/T6B30CwqeDFfu3lxhrG3h9f38eARLOpDivpx5n9JY26r/mCzzvQEKIYwIki6n0K8rt2+iMM622r/7OUthUIKkMCIkvZBs90PmvUrjbGvc1s83ByZql6+upjAaSKv/jUq/rty+icIY21p348m+PihB+g0fVRwRkt5Gtvsh816lsbWgDe7t59uDknQyueyoOBoEPfBOaj+4cscDFcbX1runn+8MSKPnU1tOUBoNlPRJst0PmfcrjatJa909WeEHGsikR7TUwsUaFaN2KfSFK3dtrjC2tsbt1Ml+PBBRG99IwSzbRmE0UNSZZNwPmY8qja2tdnM/vxyEoHg+LXbhhUojQtJ+VPeDzeJtFMfVFt3Yz2VxID5Hi03ma4ojgqTfUnA/ZE5VGldb5W+TVf60sLukN5Bt48ptGyuMCElHUNwPNst3VBxTa67p51+LOkt6ElQMduY1SiOCtOqfqfRF5nSlMTX9htLL3LV2V1Gb3kzBTCxcFTQqJr2RbPeBzZJtFMbUvk+ebOmDFLqRfkSLe9iV/ZVGhKAH3EadQuYkpbG0oK+QPUl9pGInSceQsemVOVNxRFDSR8h2H7hyxyYK42hJn6SdxDxNqYuorRdTMb1tlm+vOCJE7dgyBWfeoTSO1ug9fRSO7OpbZEwfmfcpjQiK+gbZ7gMqN62jMJb2avIkLW9S00HSk6l2H1C5YU2NDnvh/uzMq5TG0JKeTe1FyyeUOpB+Scb0aReOUhoRFHQuGfcBhd8v0Bh61J6mlzPfU4dRe1Nt+i9cqJEx6RkU92UXnqs0fha05dLJClelTr5Cnopd2UdxRJB0CQX3Q+FCjaWvfiu1B5Xb15q+oC3vxWYqma+PDkmHUtwPdmV/pTG0dCXFPUzeRXG6kt5InhI2S7dVGBGkeBUF90Ph5wrjZ0FnkOlVOURpuqSLKUzZzrxHaVRIOpLsfrArT1EaO2v0Xlr3ajlOzTRFPczYU4LKjWsrjAjSgt9TcD8Ufq3x86SjKL3IfEVxmpLeTp4OO3O00qiQ9EKy+8EuHKo0bhb1WOjlwpVR034ehWktXJM0OqarKbgfCn9YqDBmFrTxfdgTMIs3VZiWoC2XYE+HXXi20qiQdCjF/WAyJ6gZM5PStdRJKs9Qmpak51LMtFD4hcKoIOkSCu7HJu+iNGYW9SUyvVqOVzNNH6dlem3zOMVRIekZFPeDyVwghfGyRq8luweZ7ypMi/RbivsxNu6V+ebooKDvk3EfmMxJasbLovbBvVz5z1qazqAN7sJTqdgANnV3xVEhareC7X7syqGKaZwsaP07qZ6AzRMVpyHqidj0aQyVXmS+NDoo6WO09IOp5JdJSmFsTNL5FHq1nKA0DY3eSO4Lc9ffqBjAJu+sOCoEbXQrFfeBqXDufpKUwphY0odp3YPCLzWdUV8g068zJx1McS8yn1MaFZT0IrLtfkwtcOkbtpOUwpjYwVR7gs3iBylMTfotxX1VnqbrKBjAZvlDFEcFBZ1Dph9snCss/9lLN5ZSHAMLeuA99MKZo5WmYc1bqf2xdFsdQXEvMqcqjQxROyyl4j7AtksG/vuRbaQUx74k/ZxC78wPFKYUtEvG9OnKLWsoXknBADbLH6I4KqjRm2mx+wEbu2RYesr2UkjjXo3eRnYPm3s2U5hK0rOp/RUuj1GHU9yLzJdGCEnnkZkCYOOaYdkXHykphbGuqEeB3SvzKqWpNHo9uS8y31JUuIKCAWz8MMWRIWqHxVQ8FcDGGfjR04KU4hiX1PyOSu/CRZpy0sdo6dctb1OTdCjFvcicNUKo0VFk46mBjbPh6pevJ8U4vpV0Eq172OYxilOQvkt2X+YpipIup2AA2zxecWRQ1GdZbuypgW3nCjefuL2kNK4VtTe2e2U+rTSVdCWlH1fu3FBBSYdS3IvMOQqjQ1A8l1ywpwFsu2RY/s19JaUwliUt+AOVnq7c/gCFKax5G5V+Cr9V78soGMCuHKA0MigqfR7aauypgY1rBs5/7ipSCuNYSe8j2z2cOVapr6Btl+N+aDlVUVLSIRT3onCxRskoHfYPyMW2pwYYO1f402vXkVIYv4ra3fSCwu8a9R21N/05c4wa9byMggHszAuURgeFoDXfehM4V9ueGth2KXDTcRtJaexK0q8o9LQLByn1k3QYtT/zDKUJSYdR3IvCnxcpjA5SktZ5+WVAbattTwlsXDP897h1pDRulXQUxe6V+ZFCP42OJfdH3kVxghSupGAAk3mj0iihkCQ9/mP/BGquNp4K2LhmuOmYBYpxvCpo7ZuoPbDNoxT7SPowLf1W7lhHoUfS8yju5cp/N1YYJaSQJK1+4Cn/AMjFxu4PsKkZrn261IxVKen9ZLsHmW/0FfR1svtw4eqkydPVFAxgMicpjRaSYpK0+lM/9keAkm3s/sCmZvjmVlIcpwraegm9sKm7K04m/ZrSV+ZsTZ50JNm9bNqdFEcNSSlJWvCo485bApRs4/6woVTufqWUwviUoj5Pxj3IfLuvhX+m0m/Lx5UmkRb+kYIBTOY7I4mklCRpq5d9/y4gV9vuB2yc4Te7SWmcateCe2BXnqTUK2i9u3E/bnmDmsmSXkF2D+zK/kojiaSYJGmTF/9oOZRsY/cBNjWTT1igFMalFPVlMu5B4bqFCpPs1E6hcqjSZEFr/INq96BwedAIG1KQtMN7/wHkYuM+sCHDNY+V0vjUzi22AUzmI0o9op6E+4PHKk6mpDfS0gOTOVrN6CIppCCt8eyz7wNyse1JwMYZPtQojUkp6ZO09LIrR6iZkPQCyhSWbq7QR9B6N1Nxr8q/11MYZSTFJGmLV/y6gHM1di+wKebqR0tpPCpo09upGMBU6v5qgtToLbT9uHLDquo76X/JtgFM5iNKI46kFCTt8o5rgFyM3QsbZ3hXVDMWpaTXknthCuUQqQlJH6eln8IvNcWgH5DpZeOHKY48UkiS4t6n/BdKMXYPsClw2W4KcRxKCheTcQ9T4EOrSo2+TXYfZE5V7C9qyzuoGMBkfq4wAkmKSdKGR18JpWL3wsYt7TFSMw4V9bCKMYBNNdf/79rSJZR+nDlGTX9qdBjFNoBdeIHSSCQpJikeeAFkY/cAmww/3FwpjD8p6R202AA2zvCvz/wMm8lts5/iFBR1Gi32BCo3rq0wIkkhSTryJmrB7oVNzdz2/6Q0/iTpN2R6gE0pgE0/ldvXV5hK0CpXk5mAafmw0sgkKUnrnwatsXtgQ4ZPL1Qz/hS11Z0U3AMb11yM+6DwU01j0o5LqHiCjR+uOEJJjbTf7yGDe4BNLVy7q2IYd1KjZ1ONewDGxkxuZ96kNDU1OpRqDJjM+RqxQ9Kq767kit0DG7cse6mUxp2U9AFa25NM2absojgNSnoP2TZgMq9UM1JJSXrYBZDBPcAmw1fWUDPuJOlsWuzpMZmfatq/Q4s9oXLn5oqjlUKS3prJxu6BTc1c/3DFMOYUtfBCWuzpceH/KU1P1KpX0GKDyXxz5JKStOtFkLF7YOOW8jIpjTcpar1racHTYDK/1bQnbf4fMja2C89SGrWkJB1faY09AWwynL5AzXiTkta/ktbYUzHVPEFputToYYsp2JjC39dSGLkUpYddCgW7Bza1cOVDlMablLTWzygVuy8bt5ygpOlv9BQo2JiWTyuNXlJSOAFaY0/Axi33HSLFsSYl6VRojT2JbUrhc+q20XOhYmxXnqw0gilJj/sTtWBPAJsM75HSWJOidMRdONvYYOzSwslS6ERJL8EVYwrXr6YwgklJiz4D2dgTsCmV76+tZqxJIWrzLwM5l+paS2v427OloI6TjqFWjGk5WWkkU5IOvplcsSdg48yfd1caa5KS9Kgv30uf1712DUV1H/VWasUT2VtpJFNI2vgsyNgTwNCy/HApjjUpRGnLl37psv/cfcf1P3733klKGsSgd1MrNoU/rqYwkkmN9PJltMaegE2Gd0tprEmKUVJcba01F0pSChoQvZtasWn5lNKIphi08yW4YE/AplbOXKRmvEkKTVTPFDWwIehtuGK78kylEU1qFN4PrbEBbJy5Zms1Y04zMwS9AVdM4V8bKIxqStKTb6JUbCYat9yxn2IYO1OIejUUTMs3FUc2haQNvgWtsQFsMrxEimNnUtSLoWAXjlIzsklJesEdlIINYFPgA1IaP1PUwYUMlfu2VxzdFKIe+DVojQ3Y1Mq3FyiNnynpCXfTQubioDC6SUl61vVQwICNM5duomb8TI12uZEWWk5UGuUUolb/EGRjA8Yt/9xezfiZGm1+Da1deYaaUU5K0qMug4IN2LTcvJPS+JkarfYDSq3csoniSKeQFN5RaY0NNi03P0hp/ExJ+iiUzI818ifp4ddSKjbYtPxhXcXxM0XpFZAzb1Yz4kmNVvkMFGywafmFFMbPFKL2v5vl8AQ1o56SdGQmY4NNy8cUx9CkpK0vYzn/2lhx1FNI2vM2MjYYF16oZhxNjRZ8nsKvpDDqSY12uoWCAVNZvrvSOJqS9HLg9LmAFmiPpVQmmswfVlcYR1OIesIt8GalESyEGGOa2ExMi/QKij3BtHxjTE1qtMVl8P/UjEwhpiYFTfN5FCbazrxOzXiaGq3yYxY/Ws3oE1ITNXmzaP0H7/bYpzzzfw478sWvPOaYY15z9MtecfgPKZ6AqfAENeNpSgpncssOakaZkJqgnqtvs+8L3vaxb/7q2n/duzQzddMLU/j3pkrjaYrS1/jrpkqjSkyauHCbZ73ly7+9eTl9u9ZaSp60GDOJyVy6UHE8TVH6BleupTSKpChJGx7wjjP+spyeLm2bS62eVuxe2LR8XwrjaYrSt/nlQsVRI0VJqz3+nb+4k4k151JtGzOANi1f0th6lM7knEZxlAhJ0joHnf5PALe52sZmUG271CVrj60pSmfzAymNCqEJ0sL9P3cz4FxsYwbY2DVXKGuMrylK3+BsqRkFUpKkrd76J6DmamMG2MYu2cBt3z0qjLEpSp/jFxsqzXYhSUo7vvyHi6HmatsMrifWtgD8/bRnb6Ax9yj9HzfvK4VZLUqrHfCJazOQq20zoMa2a2kLwH2/fdcTFkkKabxNQToM3irFWSxqreP+AZCzjencxrZrLbnNZmL+0ymHbyZJMQWNvyftegXflMKsFfWQP0Ntq41Np8Z2LbnNlcmX3/jzk494yAJJSlFj8knxTZyrWTtotT+yvNo2nRrbpS1MuvzOP/7yK+87+mnbLtLEmILG6KP0wE+9P8xWSS9nuW26tLFrWwF85xVnffTYQ5+w3doLNGlKQWP3SdogzV4fZTlm+o1dcwa46/wPP/+R60VNHpomBY3ph6hZO2jTG6hMr41dS2sgX/eRp2+kniE1KYageTuTnk+xp2Jsu+ZsgFvOfPXOSZJSikHzgC74PYUpG9Pzjp+/a/91JCmloHlCk95GtqdgG99z9dfe9KT1JSk0QfOIBm2zlClVbjj0kRsmTUwpaJ7RoO+RcX+uPFlSaGLQPKRJT6d4ChQuVAiav/SXZNyXXXipmnlLoh4FtvuicudWSvOVKOlEWvrCZC5boDhfSdBqf6LgvkzmbCnOU6KkfbBxH9hkvimleUqU9F5a7D4wznx/FTXzlEg6j0xfGGcu20zNPCVRD7qTgvvB0HLLflKcl0SNnoYr7gebDMdJzbwkSnoz2bgfbAr8amspzkeioNNosfvBxpl7Xy2lMBcLsXcII04IsXdY+U7n0GL3A4YMP91FSnOpkJqoqcYmhlEkNlFTTU0MK80patXf0mL3hU3N5PeurhjnRrEJ6rlgjS1222vfpz513z132nhVTQxNGClCCpq46kY77bnvU5+67567brZGo56xiSvHKWnNK2jBfWFDhr8eKKUw14lNkKTmwQe+8dRzfnf7ksxEt/fdcN7njt13XUkxjQwxSlrr8a/97K//eV9rAOcl/732R5967QGbRUmKKazsE2YDJa17Ma2x+wEbZzjrIVKay8QkSWvt+6av/WEZk9s2k/73u0dvISmNBDFIGx/1rf8wqW0z+eKrPveaR60iSSmscAghpqaJYbQKMaWmiTGEoRBCTE2TUgyzwCyZtOhcSsXuC2xKZdn715bSXCUFKe726jP+w8Ta5lKr+6wlZwP3fvupUoizXozSY79wO+CcS3WftZY2m4l//fxRD5YU44qDkJqgfmOzcJVFq6+++hprDv21Fs2gkJqoYZ6aGGZQXLP7tVaZFZSkT0DG7g8bZ7jhKCmFuUiUtPMJV1XAOVfb2PRrY9ecgQsOlNIsl6S9zwFKrjY2/drYLjkDLP3V67aSQlwhkJImpnV33v+o17//tG/84FeXXvPHv910yy233Hb3sL+jnD1DYhPVc7UdnnTIy978wc98+YyzfzAEv3fmNz/38fe8/kUH7/OgVdUzNnFGBD3k9nvuurvb23mHmtlAUXpxS2vsvsDGGc7bS0pzjhCl/X+YgZyrjc202ti5wrm7SXEWC1Fbfh2cq7GZVhu75gLc+/XHSinM9VKUFLb8n3d969q7W2bhn8+A0ERJSlsd9NbPnfefluG87J8/+/SxT31AkKSYwgzY2XRt3j9LKETt/jtKxe4PbGqG0zeV4twiSnv9CsjFxqZL2y6FcryUZq0ovfBuarZturSxSwZ+8DApzuVilLT20066cgk9Xdo251xKndTDPnPOoIUkSavu9bovXbeUnq6lbXPOuQzBnHNu21yq6XnvpaccvdsCSSGFQdtpOdXdLuc9s4XUaNEXIGNPARtnc+drpDSXSFr1E1Czjenexhl+vrGaWSpplS9Da2w6t7Gz4cQFSnO1kCStfdDn/w1Q21w9EZtZtHDuQIUkSdu9+PS/MLG2uVRPxGZY2nhiLW02QLn+tEM3lRTTYO3cYrptee/soSS9pKU1dn9g4wznP0yKc4ak7a7D2dgMpk1tuXF3NbNSo00uI1dsBtPGGa7cVs2cLCRJj/n0v4HaFtuYWXiwYpK05at/vRwg52obm2FtY7u0GeDus498gKQURjWFqN2uoVTsKYBNzfj/pGaOkPSou2iNzeAaWu57vJpZKGmbf9Aam4G1ccvtj1Kae4Ukrf2yS4Gaq42ZpQcpRmmdI3+6GCi52tgMfxu75gLc8c0DF0gpjGhSo1W/ABk8FWzI8OsHKc0Jkna7hxabgbbJLNtTzayT9KCbaLEZaJuWe3dTmmslacv33ATO1baZvQcnJGm7D/0byMXGZvb0xFyA379ufSmNakrSi5bRGnsKYOOWOw+S4ugXtN7faLEZcJvMnTsozTJR6/2JFpsBt2n52/oKc6okbfSBeyAX22ZWH5gk7fS5ZVCyjc1sa2PnAjefsKGURjSFqB0vwgV7KmDI8H4pjXxRX6PFZuBtMn9YU2FWCdLPaLEZeJuWb82pQlJ8422Qq7GZ5QckSpt9OkOuxmZ2tu2S4ZY3rKIYRjMpSe+B1thTwaZUzllPzYiX9HSKbWagTcs3Z5mkE2mxmYG2CwcqzZmitPflkCs2s/9gJOl1d0C2bWZxG9cMf3i6lEY0JWm/v1IL9lSwcctfH6o02kkXUTAz0nbmJUqzSNLTqMbMSFO4PGiunBRPglyxGQUHIQTtdhG0xma2t6kZPr+O0oimkLTGp6A19hTA0LL8EIUwwiXtT7WZoaZy95aKs0bQWn+nYGaoXXim0tyo0XaXUAvYjEZRemVLrtiMgLYplX8+TjGMZlKSnvRnyMaeAjYZ3ijF0S3qa+SZg2n52iySdDItZuZkzlCYEyXtcxetsRkRu0tKX4IMNqOhjVt4tRRGNIWkNT6cKcXY/WFTzKelOKoFrXsL1cwcu/IExVkiateCPXOwuWMjhTlQ0uHQYjMydpa0/gXkis3oaFPgJCmMaFKSdv0e5AJ2X9jUwvcXKo1oSU+jegZhMj9VmDW+RcbMpMqzleY+Sc+Bgs2olLTpH2mNzShpUwufl8KoppCkA6+GXI3dDzZuOW8tpdGs0Qm0ZibblScqzgpRj8A2M9ktH5gDNXoaFGxGpaRNrqfFZsS0cebzUhjVpBiUjvod5GLsPsDQctUD1IxkQWeRmVlkvjNrfJnMzKLwI815k3a4j4LNqBS1+lW02IyexpkPKo5uUpIWvvwvkIux+8Cm5a8PUjOKKV1N9YzCpuyiOAtEbbcMmxntyvUL5zpBi64hYzMySd+jxWYUNS68SGmEk5K06ouvg1KMPRk2LTdurWYUW+sOKjMt81GlWSDpRPJMw9y7gcLcJumjtNiMTEnH02IzmppKu5viKCclqXn+5VCzbU+CTcsND1YzcgVttRTPMFz574YKQy9ow1uoZsYtf8gcJ+qx2DYjU9JeYMyoajKXRY12UpL0rF8A2bZ7YdNy49ZKo1bUHqUrY+OOnHmN0tBLeh3Z3djYuCv2UpzTSOeTMYNp49kyc860KV1Jxgy48QzHHhzT8nalEU9KkvY+q0Ku2D2wafnHpkoj154MgnEnULi20fBf5Y8UujU2piPzxLlN0jMpNt3b2LW0uTJb/my6ko6lxQyusV1LbnOpM7bkts3FNvYAYCr3PUhh1JNSkHY55T7I1XgCNi2/W1dp1Nq7Mwyd2YUDlYZc0uEUuxsMxp3tP7eRfkOhMxvXXOjpJffOhnfxvWkK2vBm6uAYu7SVIemcbezOMC2nKo1+UozSVifeCbliA9i0XLBQccR6Iu7I3H0V1e4o82OFISedR6Ebm3xlGYCnK81hoh6Jbbq1cSlA/vfPPn7sc/bcfIMNZ8ON1p6mpLeTMQNp45IBlv75nFPe9ZojD3v2QQcfNPgHH3TIc49+60fOuOJugFKM3RU2S7dVmANIMUmbvudWyBUbsGn5kRTmGve+5F46woY9FIda0r5Um24rVx5LndslnUzuyqYWuOlzR+60mkbA1f9B9UDYuBTIl37g2Q9aoCEYN9znzT+6B2oxdmeZDyjNCaSQpA3editkY4NNy2fnHuz8VTLuKPMZpaEWdQa5IzvzykMoczut8lcq3doUuPCwtTQxNSmGWXKakg6n2AygTc3wu+N3VM/YNGkGN00KmrjZ0RdCqdjd4Mo/1tAcQQpJ2uj990I2NsaZNyvNNR7yGKq7wZU7H6gwxKJ2Lth0U7lvtSPneFGPArsjCstfLimmoNk/6GyyGUBDhssOXSAppaChGGITJD3l15CxO3LlQKW5ghSStNWpUCo2pprnqJlb+FG6gIK7ceZNSkMs6RPkjuzMqXr5HK/RW8imU1O5dy8paSQM2uQuPAjGmTteLilFDdWQJB11OxncCc58VnHuIIUkPfpXkI1tCu3DlOYUdU89l+JuoPDHhRreQQ+8k2o6ouyho+d4Qd8i05HNM7VAI2LSoZRBMC78ekspaQinoC0vJIO7qfx1Fc0lpJCkI/9Fqdgm85e1FecUj9Kqv6fQrV14jtLQSnor2d3YmTOll87x1PyO6k7szOlqNDp8nNZ0bpz5otRoSDdK3ydjd2LqHopzCilK638BWmPT8j0pzCUeKR1Dtruh8HOFoaXV/0alW7uyr/SSuV3QpotxVyzfXnFkkC6kdGeT+byUNLST9EsyneDCS9TMMaRGes4tlIpN5nilOcb6/6F2g20erTikkl5ItjsxhfPVzPWiHm1Mt5mzFTUqBq17J3UAyPxCihriSRvcRMVd0PJRpTmHQtQDzoCMsXmB0pxigd5PtjvKfG5oSZdS6MiFw7TKXC/pWdSOXHih0sgQ9fCK6b5y91ZKGuqNDqa6Exd+qOlsn9RIL1lCa6jwEsW5RKMHL6YjbO7ZQmEoJR1Atem28IeFauZ+L6V0xfLtFEaGpIOp3dmZN6jRkA86h9JN5dpmTqIY9ZDLqAUqvFIxzB1i0ufJdkeZ45SGUtAPyHRjZ16nlOZ6jV5P7qjyr0UaHRu9gtwdlRvXURh2SQdQ7Q6o3LbG3ERqlD4GGSocqxDmDlEPxx1B5a+raRhHPQxsuqncvIHCCoC30Xb2h4UjxXG03bnlZCUN/1X+RO3ELH6gwtxESXr27WRTzdulMGdQ0A/JuBO7cITSEEr6LLkjO/NBJa0AeBctXf1uwQiR9CFaujNPng2SPkVLN8t3mLMoJG3+C1yolXdLYc6QdADV3UDhPA3hoK3uxaYjlm6rsCLgfbTu6rpmpPgorbvj7g0UZoMXUNxN3lVxriI10gnQUisf0sg7QJIuoeBObPN4xaGT9C5yR3bmS4paQbJgpPjEIBSuTpoFox4LHZU95jKK0pNvoFQXTlaYMyS9gOyuMl8ZPkFr30SlW9s8esUBnTUjxSdpGYCfa3bYPXf2sDmNlLTu1yG78AKluYK06C9UurVZsrXCkEl6OdnuxGTOUdD9VJnvzQpBO7dzPCXpqPvIhb+trjlD0pvIdkeZdykNGcWrKXRrF56pdP/Vd2eJneZ8ClHbX0WbebHSXCFo4/9Su4HKDWtpuCYdRLG7oXBF0MSVOnae+0mNVj2XZVyk0XYoJZ1EtjuxMy9SGipBP6PQjZ15idI4iJLiT1jO3opzhajtl9ERFC7WUI3aE9t0W/nnmuo59qGk9HP4qtJcQVFfJdud2JUnKg2Vr5A7sjPHK80hwgCuzKKohT9h8YMV5w574c4y31IcHlHbLcWmm8pdmykMjTSAYejN6JVBFKVP8h2FuYKCfkrBXWCzfAfFoZF0IrkjO/NpJQ2NgQxDbtVtOt96+3VXalGUDrzqUYpzhaQDKe4q80GlYRG0wS1U0xFlV8Whsf4HTz6p4xNPeZpiZVF7Llu2dFm39/F6NSuzKASlNTTCjiaFKyl0XPn3egpDIul1ZHdjZ76jqCERtD4DeLKa2h5L54U3z7AFKz1ISSPtcEkvIdud2JmjlYaEFv6RQrd25YnDQ1p0E8vbbpfwrmG3l13dbcubVnoZcYeT1vwHlY4LV2hIJh1GsTsxhd+qzyGw6t+pdNvy3mH3WDCdjl8kHUe2O7ErBygNBek8Ch25cLjSEFn457nPHxaubBe06Z3UrjLfVRwGUftSbbot/HEV9TkM/jj3+dsqK9sp6RNkuwtsyi6KQ+EMckd25nVKw2TB7+Y65p6NFFayi9o501nmo0ozL2rnjE03lVs2UBgmzTVzAHdk9lNcyU5R3ybbXeDKfzdUmHFJHyd3ZGc+pKRhkq6izHEyb1Oz8t3e1K6cOUZppgU98A6q6Yil2yoMlXj5qPduWjou/Eaj40ozkn5NwV1A4dpGMz3prWR3Y2e+rKihEi4Z9d5G625svJviynZJh1DcjV04UGmGabW/UenWNo8ZNrpwtEt6KaWzzGeUVraTmusodJT5scLMSjqKbHdiMucoaMj8drSLeiruCJvlOyutbJf0KrLdBTbsoTijpEsodOTCs5SGzfmjXdDmi7E7ovBLKaxkF7Tuv6h0lPm00kxK2p9q023hyqApDoPfjnaSLqHQscl8WCGuXKekd5PtLnDlzgcqzKCg75Ppxs68VGkFQ9J7yXZXrrxbalauC9rqXrpy5o1KMydqD7DptvLPNRVWMEQ9EneFceUra0kprESnpNPIdhdQ+eNCzdyk08gd2ZnjlTR0LhjxJP2agrvBuPD35wVJTQwry0U91HRkF56jNFOCtrwXm24qd2+msMIh6dkUd4Vxhitftbl6htQMfEopxrBylaK+R8adUPi5wkxJ+j9yR3bmM0pa4SDpfDLuCJta4L5z3v7ULVbRjI5NimElqaSnUN0Jtnm04swIWvsmKt3alN0Uh9CFI1/UY7HtjrBxyQBL/varr3/yfce/+fWvOWZwX3P0i4941t4P3XL1Rr1jE1eCknQhBXeT+dxMSTqabHdiMt9R1AoIJZ1Ei90R2NilNTO3LL31mnNPf+uhj1gvSFJo4spOSc+juBNs7tlCYUYoXk2hW7uyn9IQCnOAoHQpLXZXE43tWnLbtm0e7FIqk9c7Lzv9lY9YTZJSXKlJWuVPVDrKHKc0E5IOotidmMJvNZ3D4KLRT1EPvp2MPQCTG8/MWktuKxN945mv3yNJSnElpqRjyXYXUPnrapqJQT+l0JELhyutoFDS4zIZe3Bmro1tl5wBfM3JT1wghbTSUtCGt1K7sQtHKA1e1J7YptvKn1bRdK4gUKMDTMYeer1t7JozwO/fv5ukFFZOUtKHyHYXUDhPMzDqK+SO7MzrlIbTxXMCNXrKMlrw7DDRxq6twT/7fwultHJS0LZL6cg2j1cctKhtl2LTTeWWDRVWYKjRw/9Na+zZYqJt1wz88ZVrSmllJEV9iWx3k/nK4CV9iNyRnfmQklZkqNEDf4ML9iwCGLsUuOG1q0lxpaRH4W6wWbK1wmAFbXAL1XTE0u0Uh9QlcwUl6f3QVuzZBGy7ZPjrUVIKKx0p6Cdku5vMu5UGK+m1ZHdjZ76iqBUcitLjfw/Z2LMJ2LhmuGBPKa10lPR0ajdQuWEtDfjCP1Do1jZ7rgCRklY5YSnOtj2bgA0lw4dXUVrZSNLlFNyFnXmR0iAlHUaxOzGZcxU0pOKlcwklabuvArkazyZg42x+/wjFsJJR0ovI7gQKF2vAf0OhIxcOVFohopCkh59ZIRfbnkXAxi31lVJcuUha/W9UOrUr+ykNTtQ+VJtuC1dFTfcKBylGaZeP3wHO1cazB9hk+LQUVy5KeivZ7ibzbcVB+ja5IzvzUqXhddlcQ4pR2vQtVwK1rTb2bIFNzXy/UVypKGiT26mdYLN8B8VBidopY9Nt5Z9rKaxAkWKSwmM/9k+AnKuNPStg45afLlBcmUhJHyPb3WQ+pDQoSR8nd2Rn3qmkFSpSSJLWfNpJ1zAxt6XaxkMPjFu+J4WViaJ2bOkGKv9eV2Ewgja5g2q6qdy9ucKKFkkxSUoPf8O3/1mZWNpcqmcgHiyMWz6puDKRor5BtruwM0crDUbSW8juxs58RknDK10xZ5GUkiQt2v3oz/72tkpv11LyALdtLrXaxh4QjAtHKa1c9DjcDRSuCBrQ1f5KpVubupviMLtqLiMpNkET1374C044/Wd/vq8yM53bUm08CJjKfdsorkSkoF9QcBd25QClQUg6kmx3YjJnK2qINVfPcSbGJqr3wgc88snPfv6LX3nMoL7m9W8+7pSf/f6O5fTMxcbdYVq+q7AyUdLBFHeU+a7iIEiXUOjIlf2Uhtq11DnPxBBTEzVDF6y13ZNf+ZGf/hcgV+zu7MJTlVYikuLVFDq1Kbsodpe0P9WmS1O4QJ0OgQW/myNNGmJMKTUDHTXp2o992/kFsrE7wmR+rul97CQdTba7yXxUqbug75PpyIXnKQ2338+tZmqITdLEnT9yO7Vid4RtHqm4ElHQ2jdS6dSVWzdU6CpqD7DptvKnVdTpEFj4xxUhvWOStMlnoWB3lvmg0kpESjqBbHfizDFKXSWdRu7IzhyrNOSuX3EiKSbpf5ZQsLuBwmVBKxMFbXE33UDh2qSOg7a8F5tuKrduqDDcVvnLChUpJD36Pgpd2SzZQmElIiV9hmx3YRcOVOom6f/IHdmZE5U05P62gkVaoH0rFXeDzZMUVyaK2q3SEZkfKXQStPaNVLq1Wbqd4pBb9e8rXNTocGy6KhyptDKRor5Dxh1gwx6KXSS9jGx3Yme+oqhh988VL0o6neyuMq9Ss1JR0hOp7ijzGaUuFK+i0K1t9hx+i25cARO17XIG4NiVjCSdT8Ed4MqdD1SYvqQDKXYnduanChp6N62AkfQLijt73cpGSYdR3I0zb1SavqCfUuiqcKDS0Fvt3ytioj5Jy8pW0oLfU+i28seFmvaox2CbbgtXRXU+DG5eEdPoPbTu7NiVjpJeQ7a7sAuHKE3fl8kd2ZmXKg2/1W9dMXP8ylhB6/+H2g2FnytMU9C2S7HptnLDWgqzwH9XzLxjZSwlvZ9sd4BtHq04PUkfIndkZ96ppOG3xu3jc0EPXkxXmc9NU9AGt1BNR9y9hcIssOad43NK+jzZ7gCbe7ZQmI6k15LdjZ35jJJmg7vw2FzUw3FXmeOUpkML/kChW5u6u+JssNbd97uEgV0ZQUE/JOMOoPLX1TSNSYdS7E5M5mxFDb+gde6532Vww8oISQdQ3YldOEJpatJvKHTkypOUZoX17ndZsPM2W28ziNturpURJF1CwR1A4TxNPWofqk2XpnCBBrOADe69v0XvZOmSZd0vXbr81Qph5YOkF5DdiW0epzi1b5O7cuF5SrPDhve/6A1gBvJdUlzpQFr0ZyrdZL4ypaidMjbdVq5fVYNZwMb33e8SdARkd18rn5biSgdJbyTbHWCzZGuF/pI+Tu7IzrxeaZbY5P4XJT19ORmbLm1cOCMqrWwQtPF/qR1l3q3UV9Amt1NNN5VbN1SYJTZdfP+LGu15Jy12F2Dc8ss11axkoKSTyHYHUPnnWuo76S1kd2NnPqykWWKz+2PUaIe/02J3gnHLVZuoWckgavtldGNnXqTUjxb9hUq3Nsu2V5wttlhyf4waPfBqWuNOMLT8c0c1Q2an+3sU9VWy3QEULla/SUeS7U7szFcVNVtstfT+iO91p0Zr/prWuBNsWu54jJrp2mmG7DwI77m/Y0/cjV3ZT2ky6WIKXZm9ZpEH3Q9RuCJ0p6R0FtnYXWCTWf40pWmJ2iXPjJ0G4QNK92co6KcUu5PMtxUnSXoq1aZLk/mZgmaNrVe0fYLWnZllWyt0piidRq3YXWCT4QWKYVr2KJ3tMT3bLRuAj93PkfSsjrBZvoNir6Dvk+nIhYOUZo9tl61gO3EgCi9U6k5Rei+u2F1gU+D1UpiOfeiq3VlhOrZc0lnmi4r3a0jxKgrdZD6k1CNqD2PTbeHqqMEtYPvlK2aOH4TXTUujd9PSfeazigOgIL0WCnYX2FTzISlOqdFLyB0t33561r27s8IvtYK5nqSXkO0OoPLv9RQmJJ1G7sjOvExpFtlhBc17B+HYaXo7rTtz5feNBjJEPQ8ydhfY1MLnpTSVqC+T6WbpVtMhrXojtaPKTavfzyGt+Q8qXdqZo5UkBW15DzbdVm5YW2EW2bEdgPeteAj6JpnOXjtNR5MHwGYvxUGQkvZfRsbuAhtnvr9Aqb+gdf5FdTf3rDs94SKKuzE8UvH+jaTjyXYHULhcE5NOIHdkZ05Q0iyy0yB8XGkFQ9C6N1Pd2dHTkvRManc48xmlwVCjR91Gi90FGLf8dl01fTV6AcWdVG5apOkM+jaZjjJvU7p/I2jTO6md2JX9lRS01g1UurW5ZwuF2WTrZZ0Vfqyh3rJGR1NMR4UXKE1D1MMrA4BZvLXiYKjRdn+jBXeCoeUPW6rpR+FKCl26cFWalkbvoXU3FH6XdP+Gkj5BtjvJnK2opJeS7U7szKlKmk3Wv7uzyq3rKaxQiFr7Bipdmf0VpyFow7uxOzOZrykNiBo94Apa406wafn3bmoma/RKst1J5nua1qTnUjqyCy9Qc/9G1M6FTrApuygqXkWhWxvvrjiLSAv+SHU3LhyutCIhRH2RjLui7DItUriE0h125blaMCBKWv3nZONOsMncu49Sr0Y7LKbSCS2fUJqOoO1b7E6gcsO6ivdrKOoMst1J5qNaqAMpdid25ruKmk2CvkOm48KFGub9ClFvpNgduXLLmprWqM+SGQAqSx+hBQOipPAtirG7wCZT/0dxQqO1fkfBdOnMa9RMh5Suo3ZkMt+V0v0ce1M7wZVbN5TOJdNV5clKs0qjt5PdjV14hRasMEjSMdiYjgs/1/Q2ejnZ3WEKdzxMTRgMRelT1IrdBTYFXqYQ1GitC8i4I7OP4rQkfZS2K5P5otTcnyHp1xTchTOv02OxTZemcKEGfL6oPbHdDZW8lxasGIhJOgkqpmNn3qM0LUHbLcceAFNYfLDUDIaidAIU7C6wKXC8lLTddbTYdGlz90YK0/QUqt0JxoWfbCI14f6LpEMo7gIKv9cXyV25cITS7CKlayl0awp3PVYhzflCkrTnJdSKu7LNPorTIukiCgNoU+Bja0opDIJC0CuhYHeBTa18QjrqXjI23RZ+rmlf5XoqHRtnbn5JkmIK91NIzXUUurTN227GptvK9atqwAtIegvZ7sYUyqskpTBHCyGmJkrSo78O2dh0VfnjQk1z0tvJdnfYVPOPF68iqYmhM4Wo50DG7gIbF75xBmRsOrUzb1czTUn/R7a7wZDh6ldsLEmhSTGE+x2SXkW2O6JCN3bmDUqzTdAD76TaXWBT4FdPkKSUYhgxwtDX5GnnY84DF2y6tlveqTRNQdssYSCwcYY/v3VbTYxNk2K3C/SUpRS6AeMCpWLTFX644jQFbXUfnWFTM9z2rRdtv0B9h6HeR5jGXqF3f6H3XCxo3X9R6dJ4It1U/ruRwmyjpPfR0g02tcBv/ndzTRrixDR5022a5jhpo8fNsFlwwWrrPugR//OGL16XwdnYdG2be7ZSmCZFnUHGAwA2tcDyn7/18etqMHf8O5WujUsxNl0XLtT0J32KjDvCxiUD7fXfeNeRez9k/VUXBK2oHVJKeg/Z7sLYdGNnTlLSrBO03r8ouBNsXAz3/fy9h+26/kIN2YfNrHW/9p0zzhzmZ5z10+v+c8/SysRcbJvuTctHlTR9+1A9GNi4ZoA7Lvji/73sOU9+/GMe1umjtzn8HtwVxsZ0bWdeoTRtQVvdR7U7AhvXXOi5/J4bfnfRz3/0g7POOHNYn3HWNzZW6LHgk9/99pn9f+snL1UIesA3zjrjzDO+e8rCyYIe9O0zzzjzjLO+sYnC3Ctoq3vpZBBtlm+vOPso6blk252AjUsByPf8+byfnPml00//3Gc/9alPferjJ5100kkfeO/7pv+9Hzip3098avJPnvK503t+7pQfzKSgTZkla87VxmYATeW/myhMm4LOJuOBAIxdMpO7dMuS5QMwmHblxrUVpk1Jx9FidwXY2DW3hdlx20lWuZmpf1Exalt6H6DUK+kt9N5+Lqak08j2DLIzX1PULKSgr9BidwM2dmkrQ9hmok3ucZuHe6nVE7EZTNuZo5U0/VEPx7YHBDB2LbnN1QygGQ60vFlJXS64hswg9DSeWGsppeQhXu978GR/YnnufymfUgza+r6ac17GNxV7SZezPOdcF287J4t6qJlhZq9Za80/krE7mmhsu5aSe7Ztm9sZm/ss4IkeuBgzUtq0/EDdJn2cFntgehoPKB4GpnD9agpdJD0KKh6Q2dIs3Xqyf9DbmN6n9ViGsVn8IIUJUXtiG7Nsbqao75HxjDGFnyloVlLSQ+4hY3c3S/fKJvOvjRU7CVrjL2QGbFa1XThYSZ0mHUM2HlHi3k/f/4CnPfmwJVQW/89TnnbA/s/aWZoEZ96iNCHpI+Q5XdJTqJ5BLhysNEsp6fGZjL3Cx6bQPlJJ3SbtBRWPKDYtpyqq46DTaY1Hk0lXvYfKXUGT9vK9tXJdo56r/4MKnrtJupBizxBTuCJoBg4LNXpyS8ZewWNT4Jlq1HXSiynGI4lNyxWrKnSnH9AajyYxxdho43up3L2OUowpTFL42E0UDlCSkg6icMcllLlb0nPJM8eZI5VmLzV6/F20xl6RY5Ph2UrqPupDZOMRxKblP5srqvOo5hxaY48iE4M26LGmJu2ReeHnWcY3FaWob7CMb59CO3eTFvyegmeEKfxhoWbi8FCjh/yZXLFX2NjQsnR/JQ1gkD5Frtijhk3LbbsqaQCj0lmUij1StTzvKWTue5BC0APvIvPsj87pkl5A9gxx5vlKs5oarfUdyGCvmLGpLf98mJIGMkifolbskcLGLf/aWY0GMkofg4w9Wr1Mt9DyFqWko2m5ddXT53SSLqfgGWAKl2hmDhMl6dhCrtgrYGzI8MP11WhAg/R2yNgjhE0pXLSZGg1olP430xp7lHqNTmU51zUK+iXL+Ky+MrdLejLV9sDZruyjNNspSg/9LbTGXtFiUzPtG6WkgQ1Bh7e0xh4RbNzCJxslDWyI2v0KyMYepfbFhQOkXQqV/eZ6ivoSLQNn03KaomY9KUmvvhWyba9IsXEL5+0mRQ1y0i6XQTb2CGDjDDccKEUNclJzQkvNxh6VXqkFV7Kcb0onsJxrF+hLc7ygDW+i4EGj8Pd1FEYBRWnjjyyBXI29gsTGGW55mZQ04EnxA5AL2LOcbWdTTlpbMWiwk7TL96Bk2x6V9BZaFm+p37Oc46QvzvGU9FRc8UCZCk9U0kggJWm7UxZDLjZe8WHjmmHJhzeUogY+SY/4JeRi27Na72/vKiUNfpKe8ktwrsYejbZdRssrH0qlfcgKACW9lWw8QMaZNyppVFBI0tbvuxHIxcYrNGy7ZFj8mW2kpJkYkvSC6yEX257FbC/+5qOkFDQTY5Cefi6Qs409+izQD1nOxV9kGecorQBQ0GdpjT0oxi2nKGh0kGKS1nnxrw3kYmOvmLBxzRVuO3lrKQXN0Cit8rLrwbkae9ai3VeKUTM1SXr0qf8FcvbEEWcVHUEx1YUjtWDFgL5MrtgDYVMzX9WIIYUkaY8TrgAobbGNvWLBtmvOwB9et5GUomZwkhYdeT5Qso09O1UufZAazeAUpI1e/KMlQG2LbTzCLNB6N1NN5dYNlFYEKEifgQx2dzYFTpOCRgwpJEnhkceddx+Acy7VNvaKAGO7tBW4/cvPWCCloBmeJD3hi7cBJVcbzz5QuGlnNTNIiknS1q/80R0Atc3VNvZI0kSdSrYzpyvFFQIK0jGQK7a7saktvEkKGj0kxSRJmx/28Yvvpadzm0upHr7YXbKxXUtbAf571osfICkFDcEkaYPn/2gxUNtSbewhYeOJuBublrsfr2YmSSEFSes/6yMXL2ZizW2pnog9auyL7cp+o1XHM00h6BFXQC62PW22XTP84XEKQTMsu+M6YyTFpIkPfOobv3jRbZn+R4f7qJ41a8ltrkxccsXHn7WepJg0LGOUtOULv3ELE3NbqnsPmPHktdZScm7bNpdajN0FNpl8oNKMkhSaIEmbH3TC9/62nN4uuc2l1OohXwdJStdQCr9rpFFpX0qpnZaaZ5iUlI75N9Rcbewp2dg1F7jzuEVKmtET2lI7LWUmSQopaWJYe5dnvOoDXzznin/ctXh5Ybiajk/a5F5KnQVt+lz+z5+ceMiWQVJIQcM0pCBp3f3fde6t9K65zTmXUkodyFJyzm2bSzXT6IrdBTYF/lchzCxJISVNXGXrZx77qXP+dE+hf9fhXVj84Cnd6WW+vb97yxJerkZJx7NkCe9UUtTnWVLuG3mexAA+eqYpSusfcw1Abkv1VGvJGeCGd20qJc3sRi9nAJ81oyaG2ERNmlZde7Pt99hr7/0OGJbPeOzpFE+0qZkt85I7/3Hxt0967YHbraqJKQUN35CCJK31mJd+5Jy/LjYzuCy7745/XnfhOWd+4WPvefMrj9z/ZKjYXWBT4C1SnGkTQ2rUe8H6uz/1+a//4Bd+dMn1t963vDLkt5nKRkxcS2Gy7QBer0ZROwDsqKioMwF2GG2kjQ8/rPv1NfOT1Dzpk38q9HQtJedcSjW9b/zywWtKKWiGB23z/EMP6/q5D1SYYb1japqoYfxq2pkjLTrk8MOG/uGHPOuA/R6/+xZrrRrUO6WgoR1SUs+Fm+75/17z7k9/4we/vPDSq6+9ZgCvveLXP/j6qSe+89gXH/r0xz90m43XWLVRv2+Agt0FNtWcLMUh0DOkJqnPsHD1jbZ/xN77H3jwYUP78OesoSmu/v6PfPgj71tFfW7wwZNP/PRjFSXptR/72LGSFHT4p088+UMbaoVgSJIW7PrSj/30b/dm+q1L/vXbz75ur9UlpaCZHzT7hhDiMF1FbyLPpNk2pCYFzYKxSeo7pmYgk6YzxNQ0TUpRR0DG7gKbWviKlIZE7xBjapqoUTJoJE8DOBQkpaSJq2y4+74HPf8lLz/mlS994SFPfuRmizQxJg3HkAYwDJlh2+gNtDMqzY4xxhg024aYmiYGDXSIqWlSSjGG0KPPpP2XkbG7AOPMTxYpDZO+Q4gxpqE+tTSxv5RSCuqZUkq9YkopjT6zamySpjM2USsKZ94K00aPvo0WuxOMWy7ZQM1wun81xJhSapompRRj0ArFFWZqtN1facGdYGj58zZq7vdbobniTI02upzWuBNsWm55mJr5QJS06FyycSfYZBY/SWk+ECXpG5SK3QU2GQ5TDOMLx5JXlClKH6NW7C6wKfAqKYwtvHwFmqL0NijYXWBT4F1SHE9IegmluzfHSCHopVCwu8CmVk6R4vjGG3MkRR1cyNhdYOPCGVFpHKHRq8ldZV6dJDV6wt202F2AceaXa6oZQ0j6EC0dFV687EFSo11upMXuBOOWqzZRM34g/ZTijiqHZEmNNruOFtwJhpZ/PkTNuEHQ5vfhrvBeyxYlNVr7PFrjTrBpueMxasYMGr2NbDq1WbrFsmZJSc13yMbuApvM8qcrjRUkbXoblY4qf164xDlKp1ErdhfYZDhSMYwPROnHZNwNmTO0xklReg8U7C6wKfB6KYwLNNIXyZhunXmzjjwpSMdAwe4Cm2o+JMWxgBS03vcp7sqGh2sLlELU4ZCxu8CmFr4gpZX+YpL03BvIxnRc+F1SqJOespTs7mvL9xqllfhCbKKkVQ76DWQw3dqZE5RCpUaPuBUzgIUL11dcaSg0s2tUz1Wf8L4/QqnYdMby7RVTpUbb/I5l7QAu5uqtFFYSCpp1F2y0z7Ff+QtQirHp2GS+pqhcJ62120477TyAOzxyU60kHLT7ie957/uu872fOff6ewGcq7Hp2jY8bIWWola2Tnohs69zrjZmAE3L5xS1QjvEMJhxJaLDWdbOprlU29gMpKncsYnCiq2VrpOeSzFNtZ05Sknzpdi0fEVR86XYtFy1msJ8KTaZm7dU0jwpNi137KqkeVIMLbfurkbzo9i45fpt1Gh+FJtifrKuGs2LYuMW/k9Kmg/Fxhn+8AQpah4UG+dKfu+qSpqncLQwdq5w9s5S0rwntl0z8NO9pRQ0z4mNnQvks54gxah5DEcCY9dcgBs/uKMUouY1nO1s7FpaA3d8/eA1pBg1z+EsZmy75GyAf3zpBQ+QlKLmPZxljCetteS20PO2nxz3hEWSYtJ8iEmHs2x5e6W5VDOp77ric8fsvY4kxRQ0P2LSi5iF67I7f3/u5094wWM2iJrYRM2fGLTLu49/xyx6/Btf9eLDnvqIbdZZoN6xiUHzKwbN2rFJMWg+xtDMtinFGIL+v//5n//5n//5n//5n//5n//5n//5n//5n//5n//5n//5n//5n//5n//5n//5n//5n//5n//5n//5n//5n//5n//5n//5n//5n//5n//5n//5n//5n//5n//5n//5n//5n//5n//5n//5n//5n//5n//5n//5n//5n//5n//5n//5n//5n//5n//5n//5n//5n//5n//5n//5n//5Xy0BAFZQOCAqCgAA8DEBnQEqsASwBD5tNplJpCMioSAIAIANiWlu4XdhG0AJ7APfbJyHvtk5D32ych77ZOQ99snIe+2TkPfbJyHvtk5D32ych77ZOQ99snIe+2TkPfbJyHvtk5D32ych77ZOQ99snIe+2TkPfbJyHvtk5D32ych77ZOQ99snIe+2TkPfbJyHvtk5D32ych77ZOQ99snIe+2TkPfbJyHvtk5D32ych77ZOQ99snIe+2TkPfbJyHvtk5D32ych77ZOQ99snIe+2TkPfbJyHvtk5D32ych77ZOQ99snIe+2TkPfbJyHvtk5D32ych77ZOQ99snIe+2TkPfbJyHvtk5D32ych77ZOQ99snIe+2TkPfbJyHvtk5D32ych77ZOQ99snIe+2TkPfbJyHvtk5D32ych77ZOQ99snIe+2TkPfbJyHvtk5D32ych77ZOQ99snIe+2TkPfbJyHvtk5D32ych77ZOQ99snIe+2TkPfbJyHvtk5D32ych77ZOQ99snIe+2TkPfbJyHvtk5D32ych77ZOQ99snIe+2TkPfbJyHvtk5D32ych77ZOQ99snIe+2TkPfbJyHvtk5D32ych77ZOQ99snIe+2TkPfbJyHvtk5D32ych77ZOQ99snIe+2TkPfbJyHvtk5D32ych77ZOQ99snIe+2TkPfbJyHvtk5D32ych77ZOQ99snIe+2TkPfbJyHvtk5D32ych77ZOQ99snIe+2TkPfbJyHvtk5D32ych77ZOQ99snIe+2TkPfbJyHvtk5D32ych77ZOQ99snIe+2TkPfbJyHvtk5D32ych77ZOQ99snIe+2TkPfbJyHvtk5D32ych77ZOQ99snIe+2TkPfbJyHvtk5D32ych77ZOQ99snIe+2TkPfbJyHvtk5D32ych77ZOQ99snIe+2TkPfbJyHvtk5D32ych77ZOQ99snIe+2TkPfbJyHvtk5D32ych77ZOQ99snIe+2TkPfbJyHvtk5D32ych77ZOQ99snIe+2TkPfbJyHvtk5D32ych77ZOQ99snIe+2TkPfbJyHvtk5D32ych77ZOQ99snIe+2TkPfbJyHvtk5D32ych77ZOQ99snIe+2TkPfbJyHvtk5D32ych77ZOQ99snIe+2TkPfbJyHvtk5D32ych77ZOQ99snIe+2TkPfbJyHvtk5D32ych77ZOQ99snIe+2TkPfbJyHvtk5D32ych77ZOQ99snIe+2TkPfbJyHvtk5D32ych77ZOQ99snIe+2TkPfbJyHvtk5D32ych77ZOQ99snIe+2TkPfbJyHvtk5D32ych77ZOQ99snIe+2TkPfbJyHvtk5D32ych77ZOQ99snIe+2TkPfbJyHvtk5D32ych77ZOQ99snIe+2TkPfbJyHvtk5D32ych77ZOQ99snIe+2TkPfbJyHvtk5D32ych77ZOQ99snIe+2TkPfbJyHvtk5D32ych77ZOQ99snIe+2TkPfbJyHvtk5D32ych77ZOQ99snIe+2TkPfbJyHvtk5D32ych77ZOQ99snIe+2TkPfbJyHvtk5D32ych77ZOQ99snIe+2TkPfbJyHvtk5D32ych77ZOQ99snIe+2TkPfbJyHvtk5D32ych77ZOQ99snIe+2TkPfbJyHvtk5D32ych77ZOQ99snIe+2TkPfbJyHvtk5D32ych77ZOQ99snIe+2TkPfbJyHvtk5D32ych77ZOQ99snIe+2TkPfbJyHvtk5D32ych77ZOQ99snIe+2TkPfbJyHvtk5D32ych77ZOQ99snIe+2TkPfbJyHvtk5D32ych77ZOQ99snIe+2TkPfbJyHvtk5D32ych77ZOQ99snIe+2TkPfbJyHvtk5D32ych77ZOQ99snIe+2TkPfbJyHvtk5D32ych77ZOQ99snIe+2TkPfbJyHvtk5D32ych77ZOQ99snIe+2TkPfbJyHvtk5D32ych77ZOQ99snIe+2TkPfbJyHvtk5D32ych77ZOQ99snIe+2TkPfbJyHvtk5D32ych77ZOQ99snIe+2TkPfbJyHvtk5D32ych77ZOQ99snIe+2TkPfbJyHvtk5D32ych77ZOQ99snIe+2TkPfbJyHvtk5D32ych77ZOQ99snIe+2TkPfbJyHvtk5D32ych77ZOQ99snIe+2TkPfbJyHvtk5D32ych77ZOQ99snIe+2TkPfbJyHvtk5D32ych77ZOQ99snIe+2TkPfbJyHvtk5D32ych77ZOQ99snIe+2TkPfbJyHvtk5D32ych77ZOQ99snIe+2TkPfbJyHvtk5D32ych77ZOQ99snIe+2TkPfbJyHvtk5D32ych77ZOQ99snIe+2TkPfbJyHvtk5D32ych77ZOQ99snIe+2TkPfbJyHvtk5D32ych77ZOQ99snIe+2TkPfbJyHvtk5D32ych77ZOQ99snIe+2TkPfbJyHvtk5D32ych77ZOQ99snIe+2TkPfbJyHvtk5D32ych77ZOQ99snIe+2TkPfbJyHvtk5D32ych77ZOQ99snIe+2TkPfbJyHvtk5D32ych77ZOQ99snIe+2TkPfbJyHvtk5D32ych77ZOQ99snIe+2TkPfbJyHvtk5D32ych77ZOQ99snIe+2TkPfbJyHvtk5D32ych77ZOQ99snIe+2TkPfbJyHvtk5D32ych77ZOQ99snIe+2TkPfbJyHvtk5D32ych77ZOQ99snIe+2TkPfbJyHvtk5D32ych77ZOQ99snIe+2TkPfbJyHvtk5D32ych77ZOQ99snIe+2TkPfbJyHvtk5D32ych77ZOQ99snIe+2TkPfbJyHvtk5D32ych77ZOQ99snIe+2TkPfbJyHvtk5D32ych77ZOQ99snIe+2TkPfbJyHvtk5D32ych77ZOQ99snIe+2TkPfbJyHvtk5D32ych77ZOQ99snIe+2TkPfbJyHvtk5D32ych77ZOQ99snIe+2TkPfbJyHvtk5D32ych77ZOQ99snIe+2TkPfbJyHvtk5D32ych77ZOQ99snIe+2TkPfbJyHvtk5D32ych77ZOQ99snIe+2TkPfbJyHvtk5D32ych77ZOQ99snIe+2TkPfbJyHvtk5D32ych77ZOQ99snIe+2TkPfbJyHvtk5D32ych77ZOQ99snIe+2TkPfbJyHvtk5D32ych77ZOQ99snIe+2TkPfbJyHvtk5D32ych77ZOQ99snIe+2TkPfbJyHvtk5D32ych77ZOQ99snIe+2TkPfbJyHvtk5D32ych77ZOQ99snIe+2TkPfWAAA/v/rAAAAAAAAAAAAAAAAAAAAAAAAAAAAAAAAAAAAAAAAAAAAAAAAAAAAAAAAAAAAAAAAAAAAAAAAAAAAAAAAAAAAAAAAAAAAAAAAAAAAAAAAAAAAAAAAAAAAAAAAAAAAAAAAAAAAAAAAAAAAAAAAAAAAAAAAAAAAAAAAAAAAAAAAAAAAAAAAAAAAAAAAAAAAAEVYSUa6AAAARXhpZgAASUkqAAgAAAAGABIBAwABAAAAAQAAABoBBQABAAAAVgAAABsBBQABAAAAXgAAACgBAwABAAAAAgAAABMCAwABAAAAAQAAAGmHBAABAAAAZgAAAAAAAABIAAAAAQAAAEgAAAABAAAABgAAkAcABAAAADAyMTABkQcABAAAAAECAwAAoAcABAAAADAxMDABoAMAAQAAAP//AAACoAQAAQAAALAEAAADoAQAAQAAALAEAAAAAAAA;" vertex="1" parent="1">
          <mxGeometry x="774" y="337" width="32" height="32" as="geometry" />
        </mxCell>
      </root>
    </mxGraphModel>
  </diagram>
</mxfile>
